G75*
%MOIN*%
%OFA0B0*%
%FSLAX25Y25*%
%IPPOS*%
%LPD*%
%AMOC8*
5,1,8,0,0,1.08239X$1,22.5*
%
%ADD10C,0.04724*%
%ADD11R,0.09843X0.09843*%
%ADD12C,0.07400*%
%ADD13R,0.06000X0.06000*%
%ADD14C,0.01000*%
%ADD15C,0.03000*%
D10*
X0044783Y0171957D02*
X0049508Y0171957D01*
X0075492Y0171957D02*
X0080217Y0171957D01*
D11*
X0073600Y0182980D03*
X0051400Y0182980D03*
D12*
X0053500Y0155500D03*
X0043500Y0155500D03*
X0021500Y0150500D03*
X0021500Y0160500D03*
X0021500Y0170500D03*
X0021500Y0140500D03*
X0021500Y0130500D03*
X0021500Y0120500D03*
X0021500Y0110500D03*
X0021500Y0100500D03*
X0021500Y0090500D03*
X0021500Y0080500D03*
X0021500Y0070500D03*
X0021500Y0060500D03*
X0039500Y0046500D03*
X0049500Y0046500D03*
X0059500Y0046500D03*
X0069500Y0046500D03*
X0079500Y0046500D03*
X0089500Y0046500D03*
X0099500Y0046500D03*
X0109500Y0046500D03*
X0119500Y0046500D03*
X0129500Y0046500D03*
X0139500Y0046500D03*
X0149500Y0046500D03*
X0165500Y0060500D03*
X0165500Y0070500D03*
X0165500Y0080500D03*
X0165500Y0090500D03*
X0165500Y0100500D03*
X0165500Y0110500D03*
X0165500Y0120500D03*
X0165500Y0130500D03*
X0165500Y0140500D03*
X0165500Y0150500D03*
X0165500Y0160500D03*
X0165500Y0170500D03*
X0118300Y0168100D03*
X0118300Y0185900D03*
X0092700Y0185900D03*
X0092700Y0168100D03*
D13*
X0132500Y0175500D03*
X0132500Y0185500D03*
X0142500Y0185500D03*
X0142500Y0175500D03*
X0152500Y0175500D03*
X0152500Y0185500D03*
D14*
X0015500Y0190461D02*
X0015500Y0039500D01*
X0170201Y0039500D01*
X0170201Y0059306D01*
X0169569Y0057781D01*
X0168219Y0056431D01*
X0166455Y0055700D01*
X0164545Y0055700D01*
X0162781Y0056431D01*
X0161431Y0057781D01*
X0160700Y0059545D01*
X0160700Y0061455D01*
X0161431Y0063219D01*
X0162781Y0064569D01*
X0164545Y0065300D01*
X0166455Y0065300D01*
X0168219Y0064569D01*
X0169569Y0063219D01*
X0170201Y0061694D01*
X0170201Y0069306D01*
X0169569Y0067781D01*
X0168219Y0066431D01*
X0166455Y0065700D01*
X0164545Y0065700D01*
X0162781Y0066431D01*
X0161431Y0067781D01*
X0160700Y0069545D01*
X0160700Y0071455D01*
X0161431Y0073219D01*
X0162781Y0074569D01*
X0164545Y0075300D01*
X0166455Y0075300D01*
X0168219Y0074569D01*
X0169569Y0073219D01*
X0170201Y0071694D01*
X0170201Y0079306D01*
X0169569Y0077781D01*
X0168219Y0076431D01*
X0166455Y0075700D01*
X0164545Y0075700D01*
X0162781Y0076431D01*
X0161431Y0077781D01*
X0160700Y0079545D01*
X0160700Y0081455D01*
X0161431Y0083219D01*
X0162781Y0084569D01*
X0164545Y0085300D01*
X0166455Y0085300D01*
X0168219Y0084569D01*
X0169569Y0083219D01*
X0170201Y0081694D01*
X0170201Y0089306D01*
X0169569Y0087781D01*
X0168219Y0086431D01*
X0166455Y0085700D01*
X0164545Y0085700D01*
X0162781Y0086431D01*
X0161431Y0087781D01*
X0160700Y0089545D01*
X0160700Y0091455D01*
X0161431Y0093219D01*
X0162781Y0094569D01*
X0164545Y0095300D01*
X0166455Y0095300D01*
X0168219Y0094569D01*
X0169569Y0093219D01*
X0170201Y0091694D01*
X0170201Y0099306D01*
X0169569Y0097781D01*
X0168219Y0096431D01*
X0166455Y0095700D01*
X0164545Y0095700D01*
X0162781Y0096431D01*
X0161431Y0097781D01*
X0160700Y0099545D01*
X0160700Y0101455D01*
X0161431Y0103219D01*
X0162781Y0104569D01*
X0164545Y0105300D01*
X0166455Y0105300D01*
X0168219Y0104569D01*
X0169569Y0103219D01*
X0170201Y0101694D01*
X0170201Y0109306D01*
X0169569Y0107781D01*
X0168219Y0106431D01*
X0166455Y0105700D01*
X0164545Y0105700D01*
X0162781Y0106431D01*
X0161431Y0107781D01*
X0160700Y0109545D01*
X0160700Y0111455D01*
X0161431Y0113219D01*
X0162781Y0114569D01*
X0164545Y0115300D01*
X0166455Y0115300D01*
X0168219Y0114569D01*
X0169569Y0113219D01*
X0170201Y0111694D01*
X0170201Y0119306D01*
X0169569Y0117781D01*
X0168219Y0116431D01*
X0166455Y0115700D01*
X0164545Y0115700D01*
X0162781Y0116431D01*
X0161431Y0117781D01*
X0160700Y0119545D01*
X0160700Y0121455D01*
X0161431Y0123219D01*
X0162781Y0124569D01*
X0164545Y0125300D01*
X0166455Y0125300D01*
X0168219Y0124569D01*
X0169569Y0123219D01*
X0170201Y0121694D01*
X0170201Y0129306D01*
X0169569Y0127781D01*
X0168219Y0126431D01*
X0166455Y0125700D01*
X0164545Y0125700D01*
X0162781Y0126431D01*
X0161431Y0127781D01*
X0160700Y0129545D01*
X0160700Y0131455D01*
X0161431Y0133219D01*
X0162781Y0134569D01*
X0164545Y0135300D01*
X0166455Y0135300D01*
X0168219Y0134569D01*
X0169569Y0133219D01*
X0170201Y0131694D01*
X0170201Y0139306D01*
X0169569Y0137781D01*
X0168219Y0136431D01*
X0166455Y0135700D01*
X0164545Y0135700D01*
X0162781Y0136431D01*
X0161431Y0137781D01*
X0160700Y0139545D01*
X0160700Y0141455D01*
X0161431Y0143219D01*
X0162781Y0144569D01*
X0164545Y0145300D01*
X0166455Y0145300D01*
X0168219Y0144569D01*
X0169569Y0143219D01*
X0170201Y0141694D01*
X0170201Y0149306D01*
X0169569Y0147781D01*
X0168219Y0146431D01*
X0166455Y0145700D01*
X0164545Y0145700D01*
X0162781Y0146431D01*
X0161431Y0147781D01*
X0160700Y0149545D01*
X0160700Y0151455D01*
X0161431Y0153219D01*
X0162781Y0154569D01*
X0164545Y0155300D01*
X0166455Y0155300D01*
X0168219Y0154569D01*
X0169569Y0153219D01*
X0170201Y0151694D01*
X0170201Y0158272D01*
X0169947Y0157775D01*
X0169466Y0157112D01*
X0168888Y0156534D01*
X0168225Y0156053D01*
X0167496Y0155681D01*
X0166718Y0155428D01*
X0166000Y0155314D01*
X0166000Y0160000D01*
X0165000Y0160000D01*
X0165000Y0155314D01*
X0164282Y0155428D01*
X0163504Y0155681D01*
X0162775Y0156053D01*
X0162112Y0156534D01*
X0161534Y0157112D01*
X0161053Y0157775D01*
X0160681Y0158504D01*
X0160428Y0159282D01*
X0160314Y0160000D01*
X0165000Y0160000D01*
X0165000Y0161000D01*
X0165000Y0165686D01*
X0164282Y0165572D01*
X0163504Y0165319D01*
X0162775Y0164947D01*
X0162112Y0164466D01*
X0161534Y0163888D01*
X0161053Y0163225D01*
X0160681Y0162496D01*
X0160428Y0161718D01*
X0160314Y0161000D01*
X0165000Y0161000D01*
X0166000Y0161000D01*
X0166000Y0165686D01*
X0166718Y0165572D01*
X0167496Y0165319D01*
X0168225Y0164947D01*
X0168888Y0164466D01*
X0169466Y0163888D01*
X0169947Y0163225D01*
X0170201Y0162728D01*
X0170201Y0169306D01*
X0169569Y0167781D01*
X0168219Y0166431D01*
X0166455Y0165700D01*
X0164545Y0165700D01*
X0162781Y0166431D01*
X0161431Y0167781D01*
X0160700Y0169545D01*
X0160700Y0171455D01*
X0161431Y0173219D01*
X0162781Y0174569D01*
X0164545Y0175300D01*
X0166455Y0175300D01*
X0168219Y0174569D01*
X0169569Y0173219D01*
X0170201Y0171694D01*
X0170201Y0190461D01*
X0119833Y0190461D01*
X0121019Y0189969D01*
X0122369Y0188619D01*
X0123100Y0186855D01*
X0123100Y0184945D01*
X0122369Y0183181D01*
X0121019Y0181831D01*
X0119255Y0181100D01*
X0117345Y0181100D01*
X0115581Y0181831D01*
X0114231Y0183181D01*
X0113500Y0184945D01*
X0113500Y0186855D01*
X0114231Y0188619D01*
X0115581Y0189969D01*
X0116767Y0190461D01*
X0095203Y0190461D01*
X0095425Y0190347D01*
X0096088Y0189866D01*
X0096666Y0189288D01*
X0097147Y0188625D01*
X0097519Y0187896D01*
X0097772Y0187118D01*
X0097886Y0186400D01*
X0093200Y0186400D01*
X0093200Y0185400D01*
X0097886Y0185400D01*
X0097772Y0184682D01*
X0097519Y0183904D01*
X0097147Y0183175D01*
X0096666Y0182512D01*
X0096088Y0181934D01*
X0095425Y0181453D01*
X0094696Y0181081D01*
X0093918Y0180828D01*
X0093200Y0180714D01*
X0093200Y0185400D01*
X0092200Y0185400D01*
X0087514Y0185400D01*
X0087628Y0184682D01*
X0087881Y0183904D01*
X0088253Y0183175D01*
X0088734Y0182512D01*
X0089312Y0181934D01*
X0089975Y0181453D01*
X0090704Y0181081D01*
X0091482Y0180828D01*
X0092200Y0180714D01*
X0092200Y0185400D01*
X0092200Y0186400D01*
X0087514Y0186400D01*
X0087628Y0187118D01*
X0087881Y0187896D01*
X0088253Y0188625D01*
X0088734Y0189288D01*
X0089312Y0189866D01*
X0089975Y0190347D01*
X0090197Y0190461D01*
X0015500Y0190461D01*
X0015500Y0190220D02*
X0089799Y0190220D01*
X0088686Y0189222D02*
X0079235Y0189222D01*
X0079100Y0189299D02*
X0079442Y0189102D01*
X0079722Y0188823D01*
X0079919Y0188481D01*
X0080021Y0188099D01*
X0080021Y0183366D01*
X0077945Y0183366D01*
X0077945Y0182594D01*
X0080021Y0182594D01*
X0080021Y0177862D01*
X0079919Y0177480D01*
X0079722Y0177138D01*
X0079442Y0176859D01*
X0079100Y0176661D01*
X0078719Y0176559D01*
X0073986Y0176559D01*
X0073986Y0177921D01*
X0073214Y0177921D01*
X0073214Y0176995D01*
X0073555Y0176172D01*
X0073555Y0175307D01*
X0073663Y0175379D01*
X0074366Y0175670D01*
X0075112Y0175819D01*
X0075205Y0175819D01*
X0075205Y0172244D01*
X0075780Y0172244D01*
X0084079Y0172244D01*
X0084079Y0172337D01*
X0083930Y0173083D01*
X0083639Y0173786D01*
X0083216Y0174419D01*
X0082679Y0174957D01*
X0082046Y0175379D01*
X0081343Y0175670D01*
X0080597Y0175819D01*
X0075780Y0175819D01*
X0075780Y0172244D01*
X0075780Y0171669D01*
X0084079Y0171669D01*
X0084079Y0171576D01*
X0083930Y0170830D01*
X0083639Y0170127D01*
X0083216Y0169495D01*
X0082679Y0168957D01*
X0082046Y0168534D01*
X0081343Y0168243D01*
X0080597Y0168094D01*
X0075780Y0168094D01*
X0075780Y0171669D01*
X0075205Y0171669D01*
X0075205Y0168094D01*
X0075112Y0168094D01*
X0074366Y0168243D01*
X0073663Y0168534D01*
X0073030Y0168957D01*
X0072492Y0169495D01*
X0072069Y0170127D01*
X0071778Y0170830D01*
X0071630Y0171576D01*
X0071630Y0171669D01*
X0075205Y0171669D01*
X0075205Y0172244D01*
X0071630Y0172244D01*
X0071630Y0172337D01*
X0071653Y0172455D01*
X0070849Y0172122D01*
X0069505Y0172122D01*
X0068264Y0172636D01*
X0067313Y0173587D01*
X0066799Y0174828D01*
X0066799Y0176172D01*
X0067313Y0177413D01*
X0067317Y0177417D01*
X0067281Y0177480D01*
X0067179Y0177862D01*
X0067179Y0182594D01*
X0069402Y0182594D01*
X0069402Y0183366D01*
X0067179Y0183366D01*
X0067179Y0188099D01*
X0067281Y0188481D01*
X0067478Y0188823D01*
X0067758Y0189102D01*
X0068100Y0189299D01*
X0068481Y0189402D01*
X0073214Y0189402D01*
X0073214Y0188039D01*
X0073230Y0188039D01*
X0073300Y0188043D01*
X0073339Y0188078D01*
X0073673Y0188061D01*
X0073986Y0188077D01*
X0073986Y0189402D01*
X0078719Y0189402D01*
X0079100Y0189299D01*
X0079988Y0188223D02*
X0088048Y0188223D01*
X0087663Y0187225D02*
X0080021Y0187225D01*
X0080021Y0186226D02*
X0092200Y0186226D01*
X0092200Y0185228D02*
X0093200Y0185228D01*
X0093200Y0186226D02*
X0113500Y0186226D01*
X0113500Y0185228D02*
X0097858Y0185228D01*
X0097625Y0184229D02*
X0113797Y0184229D01*
X0114210Y0183231D02*
X0097176Y0183231D01*
X0096386Y0182232D02*
X0115180Y0182232D01*
X0117023Y0181234D02*
X0094996Y0181234D01*
X0093200Y0181234D02*
X0092200Y0181234D01*
X0092200Y0182232D02*
X0093200Y0182232D01*
X0093200Y0183231D02*
X0092200Y0183231D01*
X0092200Y0184229D02*
X0093200Y0184229D01*
X0090404Y0181234D02*
X0080021Y0181234D01*
X0080021Y0182232D02*
X0089014Y0182232D01*
X0088224Y0183231D02*
X0077945Y0183231D01*
X0080021Y0184229D02*
X0087775Y0184229D01*
X0087542Y0185228D02*
X0080021Y0185228D01*
X0080021Y0180235D02*
X0145900Y0180235D01*
X0145900Y0179600D02*
X0139044Y0179600D01*
X0138400Y0178956D01*
X0138400Y0172044D01*
X0139044Y0171400D01*
X0140900Y0171400D01*
X0140900Y0152077D01*
X0140296Y0151473D01*
X0139900Y0150517D01*
X0139900Y0149483D01*
X0140296Y0148527D01*
X0140900Y0147923D01*
X0140900Y0145163D01*
X0140837Y0145100D01*
X0119577Y0145100D01*
X0118973Y0145704D01*
X0118017Y0146100D01*
X0116983Y0146100D01*
X0116027Y0145704D01*
X0115423Y0145100D01*
X0088577Y0145100D01*
X0087973Y0145704D01*
X0087017Y0146100D01*
X0085983Y0146100D01*
X0085027Y0145704D01*
X0084423Y0145100D01*
X0070837Y0145100D01*
X0069900Y0144163D01*
X0068837Y0143100D01*
X0067900Y0142163D01*
X0067900Y0106077D01*
X0067296Y0105473D01*
X0066900Y0104517D01*
X0066900Y0103483D01*
X0067296Y0102527D01*
X0067900Y0101923D01*
X0067900Y0073837D01*
X0068837Y0072900D01*
X0069837Y0071900D01*
X0084423Y0071900D01*
X0085027Y0071296D01*
X0085983Y0070900D01*
X0087017Y0070900D01*
X0087973Y0071296D01*
X0088704Y0072027D01*
X0089100Y0072983D01*
X0089100Y0074017D01*
X0088704Y0074973D01*
X0087973Y0075704D01*
X0087017Y0076100D01*
X0085983Y0076100D01*
X0085027Y0075704D01*
X0084423Y0075100D01*
X0071163Y0075100D01*
X0071100Y0075163D01*
X0071100Y0101923D01*
X0071704Y0102527D01*
X0072100Y0103483D01*
X0072100Y0104517D01*
X0071704Y0105473D01*
X0071100Y0106077D01*
X0071100Y0116900D01*
X0107423Y0116900D01*
X0108027Y0116296D01*
X0108983Y0115900D01*
X0110017Y0115900D01*
X0110973Y0116296D01*
X0111704Y0117027D01*
X0112100Y0117983D01*
X0112100Y0119017D01*
X0111704Y0119973D01*
X0110973Y0120704D01*
X0110500Y0120900D01*
X0141163Y0120900D01*
X0148163Y0127900D01*
X0149100Y0128837D01*
X0149100Y0161934D01*
X0149973Y0162296D01*
X0150704Y0163027D01*
X0150900Y0163500D01*
X0150900Y0162577D01*
X0150296Y0161973D01*
X0149900Y0161017D01*
X0149900Y0159983D01*
X0150296Y0159027D01*
X0151027Y0158296D01*
X0151983Y0157900D01*
X0153017Y0157900D01*
X0153973Y0158296D01*
X0154704Y0159027D01*
X0155100Y0159983D01*
X0155100Y0161017D01*
X0154704Y0161973D01*
X0154100Y0162577D01*
X0154100Y0171400D01*
X0155956Y0171400D01*
X0156600Y0172044D01*
X0156600Y0178956D01*
X0155956Y0179600D01*
X0149100Y0179600D01*
X0149100Y0179837D01*
X0150663Y0181400D01*
X0155956Y0181400D01*
X0156600Y0182044D01*
X0156600Y0188956D01*
X0155956Y0189600D01*
X0149044Y0189600D01*
X0148400Y0188956D01*
X0148400Y0183663D01*
X0145900Y0181163D01*
X0145900Y0179600D01*
X0145971Y0181234D02*
X0119577Y0181234D01*
X0121420Y0182232D02*
X0128400Y0182232D01*
X0128400Y0182044D02*
X0129044Y0181400D01*
X0135956Y0181400D01*
X0136600Y0182044D01*
X0136600Y0188956D01*
X0135956Y0189600D01*
X0129044Y0189600D01*
X0128400Y0188956D01*
X0128400Y0182044D01*
X0128400Y0183231D02*
X0122390Y0183231D01*
X0122803Y0184229D02*
X0128400Y0184229D01*
X0128400Y0185228D02*
X0123100Y0185228D01*
X0123100Y0186226D02*
X0128400Y0186226D01*
X0128400Y0187225D02*
X0122947Y0187225D01*
X0122533Y0188223D02*
X0128400Y0188223D01*
X0128666Y0189222D02*
X0121767Y0189222D01*
X0120413Y0190220D02*
X0170201Y0190220D01*
X0170201Y0189222D02*
X0156334Y0189222D01*
X0156600Y0188223D02*
X0170201Y0188223D01*
X0170201Y0187225D02*
X0156600Y0187225D01*
X0156600Y0186226D02*
X0170201Y0186226D01*
X0170201Y0185228D02*
X0156600Y0185228D01*
X0156600Y0184229D02*
X0170201Y0184229D01*
X0170201Y0183231D02*
X0156600Y0183231D01*
X0156600Y0182232D02*
X0170201Y0182232D01*
X0170201Y0181234D02*
X0150496Y0181234D01*
X0149498Y0180235D02*
X0170201Y0180235D01*
X0170201Y0179237D02*
X0156319Y0179237D01*
X0156600Y0178238D02*
X0170201Y0178238D01*
X0170201Y0177239D02*
X0156600Y0177239D01*
X0156600Y0176241D02*
X0170201Y0176241D01*
X0170201Y0175242D02*
X0166594Y0175242D01*
X0164406Y0175242D02*
X0156600Y0175242D01*
X0156600Y0174244D02*
X0162456Y0174244D01*
X0161457Y0173245D02*
X0156600Y0173245D01*
X0156600Y0172247D02*
X0161028Y0172247D01*
X0160700Y0171248D02*
X0154100Y0171248D01*
X0154100Y0170250D02*
X0160700Y0170250D01*
X0160822Y0169251D02*
X0154100Y0169251D01*
X0154100Y0168253D02*
X0161235Y0168253D01*
X0161957Y0167254D02*
X0154100Y0167254D01*
X0154100Y0166256D02*
X0163203Y0166256D01*
X0163383Y0165257D02*
X0154100Y0165257D01*
X0154100Y0164259D02*
X0161905Y0164259D01*
X0161078Y0163260D02*
X0154100Y0163260D01*
X0154415Y0162262D02*
X0160605Y0162262D01*
X0160356Y0161263D02*
X0154998Y0161263D01*
X0155100Y0160265D02*
X0165000Y0160265D01*
X0165000Y0161263D02*
X0166000Y0161263D01*
X0166000Y0162262D02*
X0165000Y0162262D01*
X0165000Y0163260D02*
X0166000Y0163260D01*
X0166000Y0164259D02*
X0165000Y0164259D01*
X0165000Y0165257D02*
X0166000Y0165257D01*
X0167617Y0165257D02*
X0170201Y0165257D01*
X0170201Y0164259D02*
X0169095Y0164259D01*
X0169922Y0163260D02*
X0170201Y0163260D01*
X0170201Y0166256D02*
X0167797Y0166256D01*
X0169043Y0167254D02*
X0170201Y0167254D01*
X0170201Y0168253D02*
X0169765Y0168253D01*
X0170178Y0169251D02*
X0170201Y0169251D01*
X0170201Y0172247D02*
X0169972Y0172247D01*
X0170201Y0173245D02*
X0169543Y0173245D01*
X0170201Y0174244D02*
X0168544Y0174244D01*
X0166000Y0159266D02*
X0165000Y0159266D01*
X0165000Y0158268D02*
X0166000Y0158268D01*
X0166000Y0157269D02*
X0165000Y0157269D01*
X0165000Y0156271D02*
X0166000Y0156271D01*
X0166522Y0155272D02*
X0170201Y0155272D01*
X0170201Y0154274D02*
X0168514Y0154274D01*
X0169513Y0153275D02*
X0170201Y0153275D01*
X0170201Y0152277D02*
X0169960Y0152277D01*
X0170191Y0149281D02*
X0170201Y0149281D01*
X0170201Y0148283D02*
X0169777Y0148283D01*
X0170201Y0147284D02*
X0169072Y0147284D01*
X0170201Y0146286D02*
X0167869Y0146286D01*
X0166486Y0145287D02*
X0170201Y0145287D01*
X0170201Y0144289D02*
X0168500Y0144289D01*
X0169498Y0143290D02*
X0170201Y0143290D01*
X0170201Y0142292D02*
X0169953Y0142292D01*
X0170197Y0139296D02*
X0170201Y0139296D01*
X0170201Y0138298D02*
X0169783Y0138298D01*
X0170201Y0137299D02*
X0169087Y0137299D01*
X0170201Y0136301D02*
X0167905Y0136301D01*
X0168485Y0134303D02*
X0170201Y0134303D01*
X0170201Y0133305D02*
X0169483Y0133305D01*
X0169947Y0132306D02*
X0170201Y0132306D01*
X0170201Y0135302D02*
X0149100Y0135302D01*
X0149100Y0134303D02*
X0162515Y0134303D01*
X0161517Y0133305D02*
X0149100Y0133305D01*
X0149100Y0132306D02*
X0161053Y0132306D01*
X0160700Y0131308D02*
X0149100Y0131308D01*
X0149100Y0130309D02*
X0160700Y0130309D01*
X0160797Y0129311D02*
X0149100Y0129311D01*
X0148575Y0128312D02*
X0161211Y0128312D01*
X0161898Y0127314D02*
X0147577Y0127314D01*
X0146578Y0126315D02*
X0163059Y0126315D01*
X0162530Y0124318D02*
X0144581Y0124318D01*
X0143583Y0123320D02*
X0161532Y0123320D01*
X0161059Y0122321D02*
X0142584Y0122321D01*
X0141586Y0121323D02*
X0160700Y0121323D01*
X0160700Y0120324D02*
X0111353Y0120324D01*
X0111972Y0119326D02*
X0160791Y0119326D01*
X0161204Y0118327D02*
X0112100Y0118327D01*
X0111829Y0117329D02*
X0161883Y0117329D01*
X0163024Y0116330D02*
X0111007Y0116330D01*
X0109500Y0118500D02*
X0069500Y0118500D01*
X0069500Y0141500D01*
X0071500Y0143500D01*
X0086500Y0143500D01*
X0117500Y0143500D01*
X0141500Y0143500D01*
X0142500Y0144500D01*
X0142500Y0150000D01*
X0142500Y0175500D01*
X0138400Y0175242D02*
X0133000Y0175242D01*
X0133000Y0175000D02*
X0133000Y0176000D01*
X0132000Y0176000D01*
X0132000Y0180000D01*
X0129303Y0180000D01*
X0128921Y0179898D01*
X0128579Y0179700D01*
X0128300Y0179421D01*
X0128102Y0179079D01*
X0128000Y0178697D01*
X0128000Y0176000D01*
X0132000Y0176000D01*
X0132000Y0175000D01*
X0128000Y0175000D01*
X0128000Y0172303D01*
X0128102Y0171921D01*
X0128300Y0171579D01*
X0128579Y0171300D01*
X0128921Y0171102D01*
X0129303Y0171000D01*
X0132000Y0171000D01*
X0132000Y0175000D01*
X0133000Y0175000D01*
X0137000Y0175000D01*
X0137000Y0172303D01*
X0136898Y0171921D01*
X0136700Y0171579D01*
X0136421Y0171300D01*
X0136079Y0171102D01*
X0135697Y0171000D01*
X0133000Y0171000D01*
X0133000Y0175000D01*
X0133000Y0174244D02*
X0132000Y0174244D01*
X0132000Y0175242D02*
X0082251Y0175242D01*
X0083333Y0174244D02*
X0128000Y0174244D01*
X0128000Y0173245D02*
X0083863Y0173245D01*
X0084079Y0172247D02*
X0090169Y0172247D01*
X0089981Y0172169D02*
X0088631Y0170819D01*
X0087900Y0169055D01*
X0087900Y0167145D01*
X0088631Y0165381D01*
X0089981Y0164031D01*
X0091745Y0163300D01*
X0093655Y0163300D01*
X0095419Y0164031D01*
X0096769Y0165381D01*
X0097500Y0167145D01*
X0097500Y0169055D01*
X0096769Y0170819D01*
X0095419Y0172169D01*
X0093655Y0172900D01*
X0091745Y0172900D01*
X0089981Y0172169D01*
X0089060Y0171248D02*
X0084013Y0171248D01*
X0083690Y0170250D02*
X0088395Y0170250D01*
X0087981Y0169251D02*
X0082973Y0169251D01*
X0081367Y0168253D02*
X0087900Y0168253D01*
X0087900Y0167254D02*
X0025043Y0167254D01*
X0025569Y0167781D02*
X0024219Y0166431D01*
X0022455Y0165700D01*
X0020545Y0165700D01*
X0018781Y0166431D01*
X0017431Y0167781D01*
X0016700Y0169545D01*
X0016700Y0171455D01*
X0017431Y0173219D01*
X0018781Y0174569D01*
X0020545Y0175300D01*
X0022455Y0175300D01*
X0024219Y0174569D01*
X0025569Y0173219D01*
X0026300Y0171455D01*
X0026300Y0169545D01*
X0025569Y0167781D01*
X0025765Y0168253D02*
X0043633Y0168253D01*
X0043657Y0168243D02*
X0044403Y0168094D01*
X0049220Y0168094D01*
X0049220Y0171669D01*
X0040921Y0171669D01*
X0040921Y0171576D01*
X0041070Y0170830D01*
X0041361Y0170127D01*
X0041783Y0169495D01*
X0042321Y0168957D01*
X0042954Y0168534D01*
X0043657Y0168243D01*
X0042027Y0169251D02*
X0026178Y0169251D01*
X0026300Y0170250D02*
X0041310Y0170250D01*
X0040986Y0171248D02*
X0026300Y0171248D01*
X0025972Y0172247D02*
X0040921Y0172247D01*
X0040921Y0172244D02*
X0049220Y0172244D01*
X0049220Y0171669D01*
X0049795Y0171669D01*
X0049795Y0168094D01*
X0049888Y0168094D01*
X0050634Y0168243D01*
X0051337Y0168534D01*
X0051970Y0168957D01*
X0052508Y0169495D01*
X0052930Y0170127D01*
X0053222Y0170830D01*
X0053370Y0171576D01*
X0053370Y0171669D01*
X0049795Y0171669D01*
X0049795Y0172244D01*
X0049220Y0172244D01*
X0049220Y0175819D01*
X0044403Y0175819D01*
X0043657Y0175670D01*
X0042954Y0175379D01*
X0042321Y0174957D01*
X0041783Y0174419D01*
X0041361Y0173786D01*
X0041070Y0173083D01*
X0040921Y0172337D01*
X0040921Y0172244D01*
X0041137Y0173245D02*
X0025543Y0173245D01*
X0024544Y0174244D02*
X0041667Y0174244D01*
X0042749Y0175242D02*
X0022594Y0175242D01*
X0020406Y0175242D02*
X0015500Y0175242D01*
X0015500Y0174244D02*
X0018456Y0174244D01*
X0017457Y0173245D02*
X0015500Y0173245D01*
X0015500Y0172247D02*
X0017028Y0172247D01*
X0016700Y0171248D02*
X0015500Y0171248D01*
X0015500Y0170250D02*
X0016700Y0170250D01*
X0016822Y0169251D02*
X0015500Y0169251D01*
X0015500Y0168253D02*
X0017235Y0168253D01*
X0017957Y0167254D02*
X0015500Y0167254D01*
X0015500Y0166256D02*
X0019203Y0166256D01*
X0020442Y0165257D02*
X0015500Y0165257D01*
X0015500Y0164259D02*
X0018471Y0164259D01*
X0018781Y0164569D02*
X0017431Y0163219D01*
X0016700Y0161455D01*
X0016700Y0159545D01*
X0017431Y0157781D01*
X0018781Y0156431D01*
X0020545Y0155700D01*
X0022455Y0155700D01*
X0024219Y0156431D01*
X0025569Y0157781D01*
X0026300Y0159545D01*
X0026300Y0161455D01*
X0025569Y0163219D01*
X0024219Y0164569D01*
X0022455Y0165300D01*
X0020545Y0165300D01*
X0018781Y0164569D01*
X0017472Y0163260D02*
X0015500Y0163260D01*
X0015500Y0162262D02*
X0017034Y0162262D01*
X0016700Y0161263D02*
X0015500Y0161263D01*
X0015500Y0160265D02*
X0016700Y0160265D01*
X0016816Y0159266D02*
X0015500Y0159266D01*
X0015500Y0158268D02*
X0017229Y0158268D01*
X0017943Y0157269D02*
X0015500Y0157269D01*
X0015500Y0156271D02*
X0019167Y0156271D01*
X0020478Y0155272D02*
X0015500Y0155272D01*
X0015500Y0154274D02*
X0018486Y0154274D01*
X0018781Y0154569D02*
X0017431Y0153219D01*
X0016700Y0151455D01*
X0016700Y0149545D01*
X0017431Y0147781D01*
X0018781Y0146431D01*
X0020545Y0145700D01*
X0022455Y0145700D01*
X0024219Y0146431D01*
X0025569Y0147781D01*
X0026300Y0149545D01*
X0026300Y0151455D01*
X0025569Y0153219D01*
X0024219Y0154569D01*
X0022455Y0155300D01*
X0020545Y0155300D01*
X0018781Y0154569D01*
X0017487Y0153275D02*
X0015500Y0153275D01*
X0015500Y0152277D02*
X0017040Y0152277D01*
X0016700Y0151278D02*
X0015500Y0151278D01*
X0015500Y0150280D02*
X0016700Y0150280D01*
X0016809Y0149281D02*
X0015500Y0149281D01*
X0015500Y0148283D02*
X0017223Y0148283D01*
X0017928Y0147284D02*
X0015500Y0147284D01*
X0015500Y0146286D02*
X0019131Y0146286D01*
X0020514Y0145287D02*
X0015500Y0145287D01*
X0015500Y0144289D02*
X0018500Y0144289D01*
X0018781Y0144569D02*
X0017431Y0143219D01*
X0016700Y0141455D01*
X0016700Y0139545D01*
X0017431Y0137781D01*
X0018781Y0136431D01*
X0020545Y0135700D01*
X0022455Y0135700D01*
X0024219Y0136431D01*
X0025569Y0137781D01*
X0026300Y0139545D01*
X0026300Y0141455D01*
X0025569Y0143219D01*
X0024219Y0144569D01*
X0022455Y0145300D01*
X0020545Y0145300D01*
X0018781Y0144569D01*
X0017502Y0143290D02*
X0015500Y0143290D01*
X0015500Y0142292D02*
X0017047Y0142292D01*
X0016700Y0141293D02*
X0015500Y0141293D01*
X0015500Y0140295D02*
X0016700Y0140295D01*
X0016803Y0139296D02*
X0015500Y0139296D01*
X0015500Y0138298D02*
X0017217Y0138298D01*
X0017913Y0137299D02*
X0015500Y0137299D01*
X0015500Y0136301D02*
X0019095Y0136301D01*
X0018781Y0134569D02*
X0017431Y0133219D01*
X0016700Y0131455D01*
X0016700Y0129545D01*
X0017431Y0127781D01*
X0018781Y0126431D01*
X0020545Y0125700D01*
X0022455Y0125700D01*
X0024219Y0126431D01*
X0025569Y0127781D01*
X0026300Y0129545D01*
X0026300Y0131455D01*
X0025569Y0133219D01*
X0024219Y0134569D01*
X0022455Y0135300D01*
X0020545Y0135300D01*
X0018781Y0134569D01*
X0018515Y0134303D02*
X0015500Y0134303D01*
X0015500Y0133305D02*
X0017517Y0133305D01*
X0017053Y0132306D02*
X0015500Y0132306D01*
X0015500Y0131308D02*
X0016700Y0131308D01*
X0016700Y0130309D02*
X0015500Y0130309D01*
X0015500Y0129311D02*
X0016797Y0129311D01*
X0017211Y0128312D02*
X0015500Y0128312D01*
X0015500Y0127314D02*
X0017898Y0127314D01*
X0019059Y0126315D02*
X0015500Y0126315D01*
X0015500Y0125317D02*
X0067900Y0125317D01*
X0067900Y0126315D02*
X0023940Y0126315D01*
X0025102Y0127314D02*
X0067900Y0127314D01*
X0067900Y0128312D02*
X0025789Y0128312D01*
X0026203Y0129311D02*
X0067900Y0129311D01*
X0067900Y0130309D02*
X0026300Y0130309D01*
X0026300Y0131308D02*
X0067900Y0131308D01*
X0067900Y0132306D02*
X0025947Y0132306D01*
X0025483Y0133305D02*
X0067900Y0133305D01*
X0067900Y0134303D02*
X0024485Y0134303D01*
X0023905Y0136301D02*
X0067900Y0136301D01*
X0067900Y0137299D02*
X0025087Y0137299D01*
X0025783Y0138298D02*
X0067900Y0138298D01*
X0067900Y0139296D02*
X0026197Y0139296D01*
X0026300Y0140295D02*
X0067900Y0140295D01*
X0067900Y0141293D02*
X0026300Y0141293D01*
X0025953Y0142292D02*
X0068029Y0142292D01*
X0069027Y0143290D02*
X0025498Y0143290D01*
X0024500Y0144289D02*
X0070026Y0144289D01*
X0067900Y0135302D02*
X0015500Y0135302D01*
X0020545Y0125300D02*
X0018781Y0124569D01*
X0017431Y0123219D01*
X0016700Y0121455D01*
X0016700Y0119545D01*
X0017431Y0117781D01*
X0018781Y0116431D01*
X0020545Y0115700D01*
X0022455Y0115700D01*
X0024219Y0116431D01*
X0025569Y0117781D01*
X0026300Y0119545D01*
X0026300Y0121455D01*
X0025569Y0123219D01*
X0024219Y0124569D01*
X0022455Y0125300D01*
X0020545Y0125300D01*
X0018530Y0124318D02*
X0015500Y0124318D01*
X0015500Y0123320D02*
X0017532Y0123320D01*
X0017059Y0122321D02*
X0015500Y0122321D01*
X0015500Y0121323D02*
X0016700Y0121323D01*
X0016700Y0120324D02*
X0015500Y0120324D01*
X0015500Y0119326D02*
X0016791Y0119326D01*
X0017204Y0118327D02*
X0015500Y0118327D01*
X0015500Y0117329D02*
X0017883Y0117329D01*
X0019024Y0116330D02*
X0015500Y0116330D01*
X0015500Y0115332D02*
X0067900Y0115332D01*
X0067900Y0116330D02*
X0023976Y0116330D01*
X0025117Y0117329D02*
X0067900Y0117329D01*
X0067900Y0118327D02*
X0025796Y0118327D01*
X0026209Y0119326D02*
X0067900Y0119326D01*
X0067900Y0120324D02*
X0026300Y0120324D01*
X0026300Y0121323D02*
X0067900Y0121323D01*
X0067900Y0122321D02*
X0025941Y0122321D01*
X0025468Y0123320D02*
X0067900Y0123320D01*
X0067900Y0124318D02*
X0024470Y0124318D01*
X0022455Y0115300D02*
X0020545Y0115300D01*
X0018781Y0114569D01*
X0017431Y0113219D01*
X0016700Y0111455D01*
X0016700Y0109545D01*
X0017431Y0107781D01*
X0018781Y0106431D01*
X0020545Y0105700D01*
X0022455Y0105700D01*
X0024219Y0106431D01*
X0025569Y0107781D01*
X0026300Y0109545D01*
X0026300Y0111455D01*
X0025569Y0113219D01*
X0024219Y0114569D01*
X0022455Y0115300D01*
X0024455Y0114333D02*
X0067900Y0114333D01*
X0067900Y0113335D02*
X0025453Y0113335D01*
X0025935Y0112336D02*
X0067900Y0112336D01*
X0067900Y0111338D02*
X0026300Y0111338D01*
X0026300Y0110339D02*
X0067900Y0110339D01*
X0067900Y0109341D02*
X0026215Y0109341D01*
X0025802Y0108342D02*
X0067900Y0108342D01*
X0067900Y0107344D02*
X0025132Y0107344D01*
X0024012Y0106345D02*
X0067900Y0106345D01*
X0067244Y0105347D02*
X0015500Y0105347D01*
X0015500Y0106345D02*
X0018988Y0106345D01*
X0017868Y0107344D02*
X0015500Y0107344D01*
X0015500Y0108342D02*
X0017198Y0108342D01*
X0016785Y0109341D02*
X0015500Y0109341D01*
X0015500Y0110339D02*
X0016700Y0110339D01*
X0016700Y0111338D02*
X0015500Y0111338D01*
X0015500Y0112336D02*
X0017065Y0112336D01*
X0017547Y0113335D02*
X0015500Y0113335D01*
X0015500Y0114333D02*
X0018545Y0114333D01*
X0020545Y0105300D02*
X0018781Y0104569D01*
X0017431Y0103219D01*
X0016700Y0101455D01*
X0016700Y0099545D01*
X0017431Y0097781D01*
X0018781Y0096431D01*
X0020545Y0095700D01*
X0022455Y0095700D01*
X0024219Y0096431D01*
X0025569Y0097781D01*
X0026300Y0099545D01*
X0026300Y0101455D01*
X0025569Y0103219D01*
X0024219Y0104569D01*
X0022455Y0105300D01*
X0020545Y0105300D01*
X0018560Y0104348D02*
X0015500Y0104348D01*
X0015500Y0103350D02*
X0017561Y0103350D01*
X0017071Y0102351D02*
X0015500Y0102351D01*
X0015500Y0101353D02*
X0016700Y0101353D01*
X0016700Y0100354D02*
X0015500Y0100354D01*
X0015500Y0099356D02*
X0016779Y0099356D01*
X0017192Y0098357D02*
X0015500Y0098357D01*
X0015500Y0097359D02*
X0017853Y0097359D01*
X0018952Y0096360D02*
X0015500Y0096360D01*
X0015500Y0095362D02*
X0067900Y0095362D01*
X0067900Y0096360D02*
X0024048Y0096360D01*
X0025147Y0097359D02*
X0067900Y0097359D01*
X0067900Y0098357D02*
X0025808Y0098357D01*
X0026221Y0099356D02*
X0067900Y0099356D01*
X0067900Y0100354D02*
X0026300Y0100354D01*
X0026300Y0101353D02*
X0067900Y0101353D01*
X0067472Y0102351D02*
X0025929Y0102351D01*
X0025439Y0103350D02*
X0066955Y0103350D01*
X0066900Y0104348D02*
X0024440Y0104348D01*
X0022455Y0095300D02*
X0020545Y0095300D01*
X0018781Y0094569D01*
X0017431Y0093219D01*
X0016700Y0091455D01*
X0016700Y0089545D01*
X0017431Y0087781D01*
X0018781Y0086431D01*
X0020545Y0085700D01*
X0022455Y0085700D01*
X0024219Y0086431D01*
X0025569Y0087781D01*
X0026300Y0089545D01*
X0026300Y0091455D01*
X0025569Y0093219D01*
X0024219Y0094569D01*
X0022455Y0095300D01*
X0024425Y0094363D02*
X0067900Y0094363D01*
X0067900Y0093365D02*
X0025424Y0093365D01*
X0025923Y0092366D02*
X0067900Y0092366D01*
X0067900Y0091368D02*
X0026300Y0091368D01*
X0026300Y0090369D02*
X0067900Y0090369D01*
X0067900Y0089370D02*
X0026228Y0089370D01*
X0025814Y0088372D02*
X0067900Y0088372D01*
X0067900Y0087373D02*
X0025162Y0087373D01*
X0024084Y0086375D02*
X0067900Y0086375D01*
X0067900Y0085376D02*
X0015500Y0085376D01*
X0015500Y0084378D02*
X0018590Y0084378D01*
X0018781Y0084569D02*
X0017431Y0083219D01*
X0016700Y0081455D01*
X0016700Y0079545D01*
X0017431Y0077781D01*
X0018781Y0076431D01*
X0020545Y0075700D01*
X0022455Y0075700D01*
X0024219Y0076431D01*
X0025569Y0077781D01*
X0026300Y0079545D01*
X0026300Y0081455D01*
X0025569Y0083219D01*
X0024219Y0084569D01*
X0022455Y0085300D01*
X0020545Y0085300D01*
X0018781Y0084569D01*
X0017591Y0083379D02*
X0015500Y0083379D01*
X0015500Y0082381D02*
X0017084Y0082381D01*
X0016700Y0081382D02*
X0015500Y0081382D01*
X0015500Y0080384D02*
X0016700Y0080384D01*
X0016766Y0079385D02*
X0015500Y0079385D01*
X0015500Y0078387D02*
X0017180Y0078387D01*
X0017823Y0077388D02*
X0015500Y0077388D01*
X0015500Y0076390D02*
X0018880Y0076390D01*
X0018781Y0074569D02*
X0017431Y0073219D01*
X0016700Y0071455D01*
X0016700Y0069545D01*
X0017431Y0067781D01*
X0018781Y0066431D01*
X0020545Y0065700D01*
X0022455Y0065700D01*
X0024219Y0066431D01*
X0025569Y0067781D01*
X0026300Y0069545D01*
X0026300Y0071455D01*
X0025569Y0073219D01*
X0024219Y0074569D01*
X0022455Y0075300D01*
X0020545Y0075300D01*
X0018781Y0074569D01*
X0018605Y0074393D02*
X0015500Y0074393D01*
X0015500Y0075391D02*
X0067900Y0075391D01*
X0067900Y0074393D02*
X0024395Y0074393D01*
X0025394Y0073394D02*
X0068343Y0073394D01*
X0069341Y0072396D02*
X0025910Y0072396D01*
X0026300Y0071397D02*
X0084926Y0071397D01*
X0086500Y0073500D02*
X0070500Y0073500D01*
X0069500Y0074500D01*
X0069500Y0104000D01*
X0069500Y0118500D01*
X0071100Y0116330D02*
X0107993Y0116330D01*
X0088500Y0135500D02*
X0142500Y0135500D01*
X0141500Y0139500D02*
X0088500Y0139500D01*
X0076500Y0127500D01*
X0080500Y0127500D02*
X0080500Y0123500D01*
X0080500Y0127500D02*
X0088500Y0135500D01*
X0085500Y0127500D02*
X0142500Y0127500D01*
X0145500Y0130500D01*
X0145500Y0165500D01*
X0147500Y0167500D01*
X0147500Y0180500D01*
X0152500Y0185500D01*
X0148666Y0189222D02*
X0146334Y0189222D01*
X0146600Y0188956D02*
X0145956Y0189600D01*
X0139044Y0189600D01*
X0138400Y0188956D01*
X0138400Y0182044D01*
X0139044Y0181400D01*
X0145956Y0181400D01*
X0146600Y0182044D01*
X0146600Y0188956D01*
X0146600Y0188223D02*
X0148400Y0188223D01*
X0148400Y0187225D02*
X0146600Y0187225D01*
X0146600Y0186226D02*
X0148400Y0186226D01*
X0148400Y0185228D02*
X0146600Y0185228D01*
X0146600Y0184229D02*
X0148400Y0184229D01*
X0147968Y0183231D02*
X0146600Y0183231D01*
X0146600Y0182232D02*
X0146969Y0182232D01*
X0152500Y0175500D02*
X0152500Y0160500D01*
X0150585Y0162262D02*
X0149891Y0162262D01*
X0150002Y0161263D02*
X0149100Y0161263D01*
X0149100Y0160265D02*
X0149900Y0160265D01*
X0150197Y0159266D02*
X0149100Y0159266D01*
X0149100Y0158268D02*
X0151095Y0158268D01*
X0149100Y0157269D02*
X0161420Y0157269D01*
X0160801Y0158268D02*
X0153905Y0158268D01*
X0154803Y0159266D02*
X0160433Y0159266D01*
X0162474Y0156271D02*
X0149100Y0156271D01*
X0149100Y0155272D02*
X0164478Y0155272D01*
X0162486Y0154274D02*
X0149100Y0154274D01*
X0149100Y0153275D02*
X0161487Y0153275D01*
X0161040Y0152277D02*
X0149100Y0152277D01*
X0149100Y0151278D02*
X0160700Y0151278D01*
X0160700Y0150280D02*
X0149100Y0150280D01*
X0149100Y0149281D02*
X0160809Y0149281D01*
X0161223Y0148283D02*
X0149100Y0148283D01*
X0149100Y0147284D02*
X0161928Y0147284D01*
X0163131Y0146286D02*
X0149100Y0146286D01*
X0149100Y0145287D02*
X0164514Y0145287D01*
X0162500Y0144289D02*
X0149100Y0144289D01*
X0149100Y0143290D02*
X0161502Y0143290D01*
X0161047Y0142292D02*
X0149100Y0142292D01*
X0149100Y0141293D02*
X0160700Y0141293D01*
X0160700Y0140295D02*
X0149100Y0140295D01*
X0149100Y0139296D02*
X0160803Y0139296D01*
X0161217Y0138298D02*
X0149100Y0138298D01*
X0149100Y0137299D02*
X0161913Y0137299D01*
X0163095Y0136301D02*
X0149100Y0136301D01*
X0147500Y0129500D02*
X0147500Y0163500D01*
X0148500Y0164500D01*
X0150801Y0163260D02*
X0150900Y0163260D01*
X0140900Y0163260D02*
X0025528Y0163260D01*
X0025966Y0162262D02*
X0140900Y0162262D01*
X0140900Y0161263D02*
X0026300Y0161263D01*
X0026300Y0160265D02*
X0042460Y0160265D01*
X0042545Y0160300D02*
X0040781Y0159569D01*
X0039431Y0158219D01*
X0038700Y0156455D01*
X0038700Y0154545D01*
X0039431Y0152781D01*
X0040781Y0151431D01*
X0042545Y0150700D01*
X0044455Y0150700D01*
X0046219Y0151431D01*
X0047569Y0152781D01*
X0048300Y0154545D01*
X0048300Y0156455D01*
X0047569Y0158219D01*
X0046219Y0159569D01*
X0044455Y0160300D01*
X0042545Y0160300D01*
X0044540Y0160265D02*
X0052460Y0160265D01*
X0052545Y0160300D02*
X0050781Y0159569D01*
X0049431Y0158219D01*
X0048700Y0156455D01*
X0048700Y0154545D01*
X0049431Y0152781D01*
X0050781Y0151431D01*
X0052545Y0150700D01*
X0054455Y0150700D01*
X0056219Y0151431D01*
X0057569Y0152781D01*
X0058300Y0154545D01*
X0058300Y0156455D01*
X0057569Y0158219D01*
X0056219Y0159569D01*
X0054455Y0160300D01*
X0052545Y0160300D01*
X0054540Y0160265D02*
X0088527Y0160265D01*
X0088733Y0160350D02*
X0087777Y0159954D01*
X0087046Y0159223D01*
X0086650Y0158267D01*
X0086650Y0157233D01*
X0087046Y0156277D01*
X0087777Y0155546D01*
X0088733Y0155150D01*
X0089587Y0155150D01*
X0090837Y0153900D01*
X0113423Y0153900D01*
X0114027Y0153296D01*
X0114983Y0152900D01*
X0116017Y0152900D01*
X0116973Y0153296D01*
X0117704Y0154027D01*
X0118100Y0154983D01*
X0118100Y0156017D01*
X0117704Y0156973D01*
X0116973Y0157704D01*
X0116017Y0158100D01*
X0114983Y0158100D01*
X0114027Y0157704D01*
X0113423Y0157100D01*
X0092163Y0157100D01*
X0091850Y0157413D01*
X0091850Y0158267D01*
X0091454Y0159223D01*
X0090723Y0159954D01*
X0089767Y0160350D01*
X0088733Y0160350D01*
X0089973Y0160265D02*
X0140900Y0160265D01*
X0140900Y0159266D02*
X0091411Y0159266D01*
X0091850Y0158268D02*
X0140900Y0158268D01*
X0140900Y0157269D02*
X0117408Y0157269D01*
X0117995Y0156271D02*
X0140900Y0156271D01*
X0140900Y0155272D02*
X0118100Y0155272D01*
X0117806Y0154274D02*
X0140900Y0154274D01*
X0140900Y0153275D02*
X0116923Y0153275D01*
X0115500Y0155500D02*
X0091500Y0155500D01*
X0089250Y0157750D01*
X0088438Y0155272D02*
X0058300Y0155272D01*
X0058300Y0156271D02*
X0087052Y0156271D01*
X0086650Y0157269D02*
X0057963Y0157269D01*
X0057520Y0158268D02*
X0086650Y0158268D01*
X0087089Y0159266D02*
X0056522Y0159266D01*
X0058188Y0154274D02*
X0090464Y0154274D01*
X0091993Y0157269D02*
X0113592Y0157269D01*
X0114077Y0153275D02*
X0057774Y0153275D01*
X0057065Y0152277D02*
X0140900Y0152277D01*
X0140215Y0151278D02*
X0055851Y0151278D01*
X0051149Y0151278D02*
X0045851Y0151278D01*
X0047065Y0152277D02*
X0049935Y0152277D01*
X0049226Y0153275D02*
X0047774Y0153275D01*
X0048188Y0154274D02*
X0048812Y0154274D01*
X0048700Y0155272D02*
X0048300Y0155272D01*
X0048300Y0156271D02*
X0048700Y0156271D01*
X0049037Y0157269D02*
X0047963Y0157269D01*
X0047520Y0158268D02*
X0049480Y0158268D01*
X0050478Y0159266D02*
X0046522Y0159266D01*
X0040478Y0159266D02*
X0026184Y0159266D01*
X0025771Y0158268D02*
X0039480Y0158268D01*
X0039037Y0157269D02*
X0025057Y0157269D01*
X0023833Y0156271D02*
X0038700Y0156271D01*
X0038700Y0155272D02*
X0022522Y0155272D01*
X0024514Y0154274D02*
X0038812Y0154274D01*
X0039226Y0153275D02*
X0025513Y0153275D01*
X0025960Y0152277D02*
X0039935Y0152277D01*
X0041149Y0151278D02*
X0026300Y0151278D01*
X0026300Y0150280D02*
X0139900Y0150280D01*
X0139984Y0149281D02*
X0026191Y0149281D01*
X0025777Y0148283D02*
X0140540Y0148283D01*
X0140900Y0147284D02*
X0025072Y0147284D01*
X0023869Y0146286D02*
X0140900Y0146286D01*
X0140900Y0145287D02*
X0119390Y0145287D01*
X0115610Y0145287D02*
X0088390Y0145287D01*
X0084610Y0145287D02*
X0022486Y0145287D01*
X0024529Y0164259D02*
X0089753Y0164259D01*
X0088754Y0165257D02*
X0022558Y0165257D01*
X0023797Y0166256D02*
X0088268Y0166256D01*
X0095647Y0164259D02*
X0115353Y0164259D01*
X0115581Y0164031D02*
X0117345Y0163300D01*
X0119255Y0163300D01*
X0121019Y0164031D01*
X0122369Y0165381D01*
X0123100Y0167145D01*
X0123100Y0169055D01*
X0122369Y0170819D01*
X0121019Y0172169D01*
X0119255Y0172900D01*
X0117345Y0172900D01*
X0115581Y0172169D01*
X0114231Y0170819D01*
X0113500Y0169055D01*
X0113500Y0167145D01*
X0114231Y0165381D01*
X0115581Y0164031D01*
X0114354Y0165257D02*
X0096646Y0165257D01*
X0097132Y0166256D02*
X0113868Y0166256D01*
X0113500Y0167254D02*
X0097500Y0167254D01*
X0097500Y0168253D02*
X0113500Y0168253D01*
X0113581Y0169251D02*
X0097419Y0169251D01*
X0097005Y0170250D02*
X0113995Y0170250D01*
X0114660Y0171248D02*
X0096340Y0171248D01*
X0095231Y0172247D02*
X0115769Y0172247D01*
X0120831Y0172247D02*
X0128015Y0172247D01*
X0128668Y0171248D02*
X0121940Y0171248D01*
X0122605Y0170250D02*
X0140900Y0170250D01*
X0140900Y0171248D02*
X0136332Y0171248D01*
X0136985Y0172247D02*
X0138400Y0172247D01*
X0138400Y0173245D02*
X0137000Y0173245D01*
X0137000Y0174244D02*
X0138400Y0174244D01*
X0138400Y0176241D02*
X0137000Y0176241D01*
X0137000Y0176000D02*
X0137000Y0178697D01*
X0136898Y0179079D01*
X0136700Y0179421D01*
X0136421Y0179700D01*
X0136079Y0179898D01*
X0135697Y0180000D01*
X0133000Y0180000D01*
X0133000Y0176000D01*
X0137000Y0176000D01*
X0137000Y0177239D02*
X0138400Y0177239D01*
X0138400Y0178238D02*
X0137000Y0178238D01*
X0136807Y0179237D02*
X0138681Y0179237D01*
X0138400Y0182232D02*
X0136600Y0182232D01*
X0136600Y0183231D02*
X0138400Y0183231D01*
X0138400Y0184229D02*
X0136600Y0184229D01*
X0136600Y0185228D02*
X0138400Y0185228D01*
X0138400Y0186226D02*
X0136600Y0186226D01*
X0136600Y0187225D02*
X0138400Y0187225D01*
X0138400Y0188223D02*
X0136600Y0188223D01*
X0136334Y0189222D02*
X0138666Y0189222D01*
X0133000Y0179237D02*
X0132000Y0179237D01*
X0132000Y0178238D02*
X0133000Y0178238D01*
X0133000Y0177239D02*
X0132000Y0177239D01*
X0132000Y0176241D02*
X0133000Y0176241D01*
X0133000Y0173245D02*
X0132000Y0173245D01*
X0132000Y0172247D02*
X0133000Y0172247D01*
X0133000Y0171248D02*
X0132000Y0171248D01*
X0128000Y0176241D02*
X0073527Y0176241D01*
X0073214Y0177239D02*
X0073986Y0177239D01*
X0075205Y0175242D02*
X0075780Y0175242D01*
X0075780Y0174244D02*
X0075205Y0174244D01*
X0075205Y0173245D02*
X0075780Y0173245D01*
X0075780Y0172247D02*
X0075205Y0172247D01*
X0075205Y0171248D02*
X0075780Y0171248D01*
X0075780Y0170250D02*
X0075205Y0170250D01*
X0075205Y0169251D02*
X0075780Y0169251D01*
X0075780Y0168253D02*
X0075205Y0168253D01*
X0074341Y0168253D02*
X0050658Y0168253D01*
X0049795Y0168253D02*
X0049220Y0168253D01*
X0049220Y0169251D02*
X0049795Y0169251D01*
X0049795Y0170250D02*
X0049220Y0170250D01*
X0049220Y0171248D02*
X0049795Y0171248D01*
X0049795Y0172244D02*
X0053370Y0172244D01*
X0053370Y0172337D01*
X0053347Y0172455D01*
X0054151Y0172122D01*
X0055495Y0172122D01*
X0056736Y0172636D01*
X0057687Y0173587D01*
X0058201Y0174828D01*
X0058201Y0176172D01*
X0057687Y0177413D01*
X0057683Y0177417D01*
X0057719Y0177480D01*
X0057821Y0177862D01*
X0057821Y0182594D01*
X0055598Y0182594D01*
X0055598Y0183366D01*
X0057821Y0183366D01*
X0057821Y0188099D01*
X0057719Y0188481D01*
X0057522Y0188823D01*
X0057242Y0189102D01*
X0056900Y0189299D01*
X0056519Y0189402D01*
X0051786Y0189402D01*
X0051786Y0188092D01*
X0051327Y0188048D01*
X0051014Y0188078D01*
X0051014Y0189402D01*
X0046281Y0189402D01*
X0045900Y0189299D01*
X0045558Y0189102D01*
X0045278Y0188823D01*
X0045081Y0188481D01*
X0044979Y0188099D01*
X0044979Y0183366D01*
X0047055Y0183366D01*
X0047055Y0182594D01*
X0044979Y0182594D01*
X0044979Y0177862D01*
X0045081Y0177480D01*
X0045278Y0177138D01*
X0045558Y0176859D01*
X0045900Y0176661D01*
X0046281Y0176559D01*
X0051014Y0176559D01*
X0051014Y0177883D01*
X0051327Y0177912D01*
X0051786Y0177869D01*
X0051786Y0176995D01*
X0051445Y0176172D01*
X0051445Y0175307D01*
X0051337Y0175379D01*
X0050634Y0175670D01*
X0049888Y0175819D01*
X0049795Y0175819D01*
X0049795Y0172244D01*
X0049795Y0172247D02*
X0049220Y0172247D01*
X0049220Y0173245D02*
X0049795Y0173245D01*
X0049795Y0174244D02*
X0049220Y0174244D01*
X0049220Y0175242D02*
X0049795Y0175242D01*
X0051473Y0176241D02*
X0015500Y0176241D01*
X0015500Y0177239D02*
X0045220Y0177239D01*
X0044979Y0178238D02*
X0015500Y0178238D01*
X0015500Y0179237D02*
X0044979Y0179237D01*
X0044979Y0180235D02*
X0015500Y0180235D01*
X0015500Y0181234D02*
X0044979Y0181234D01*
X0044979Y0182232D02*
X0015500Y0182232D01*
X0015500Y0183231D02*
X0047055Y0183231D01*
X0044979Y0184229D02*
X0015500Y0184229D01*
X0015500Y0185228D02*
X0044979Y0185228D01*
X0044979Y0186226D02*
X0015500Y0186226D01*
X0015500Y0187225D02*
X0044979Y0187225D01*
X0045012Y0188223D02*
X0015500Y0188223D01*
X0015500Y0189222D02*
X0045765Y0189222D01*
X0051014Y0189222D02*
X0051786Y0189222D01*
X0051786Y0188223D02*
X0051014Y0188223D01*
X0057035Y0189222D02*
X0067965Y0189222D01*
X0067212Y0188223D02*
X0057788Y0188223D01*
X0057821Y0187225D02*
X0067179Y0187225D01*
X0067179Y0186226D02*
X0057821Y0186226D01*
X0057821Y0185228D02*
X0067179Y0185228D01*
X0067179Y0184229D02*
X0057821Y0184229D01*
X0057821Y0182232D02*
X0067179Y0182232D01*
X0067179Y0181234D02*
X0057821Y0181234D01*
X0057821Y0180235D02*
X0067179Y0180235D01*
X0067179Y0179237D02*
X0057821Y0179237D01*
X0057821Y0178238D02*
X0067179Y0178238D01*
X0067241Y0177239D02*
X0057759Y0177239D01*
X0058172Y0176241D02*
X0066828Y0176241D01*
X0066799Y0175242D02*
X0058201Y0175242D01*
X0057959Y0174244D02*
X0067041Y0174244D01*
X0067655Y0173245D02*
X0057345Y0173245D01*
X0055796Y0172247D02*
X0069204Y0172247D01*
X0071151Y0172247D02*
X0071630Y0172247D01*
X0071695Y0171248D02*
X0053305Y0171248D01*
X0053370Y0172247D02*
X0053849Y0172247D01*
X0052981Y0170250D02*
X0072019Y0170250D01*
X0072735Y0169251D02*
X0052265Y0169251D01*
X0051786Y0177239D02*
X0051014Y0177239D01*
X0055598Y0183231D02*
X0069402Y0183231D01*
X0073214Y0188223D02*
X0073986Y0188223D01*
X0073986Y0189222D02*
X0073214Y0189222D01*
X0080021Y0179237D02*
X0128193Y0179237D01*
X0128000Y0178238D02*
X0080021Y0178238D01*
X0079780Y0177239D02*
X0128000Y0177239D01*
X0123019Y0169251D02*
X0140900Y0169251D01*
X0140900Y0168253D02*
X0123100Y0168253D01*
X0123100Y0167254D02*
X0140900Y0167254D01*
X0140900Y0166256D02*
X0122732Y0166256D01*
X0122246Y0165257D02*
X0140900Y0165257D01*
X0140900Y0164259D02*
X0121247Y0164259D01*
X0113653Y0187225D02*
X0097737Y0187225D01*
X0097352Y0188223D02*
X0114067Y0188223D01*
X0114833Y0189222D02*
X0096714Y0189222D01*
X0095601Y0190220D02*
X0116187Y0190220D01*
X0168526Y0156271D02*
X0170201Y0156271D01*
X0170201Y0157269D02*
X0169580Y0157269D01*
X0170199Y0158268D02*
X0170201Y0158268D01*
X0147500Y0129500D02*
X0140500Y0122500D01*
X0086500Y0122500D01*
X0071100Y0115332D02*
X0170201Y0115332D01*
X0170201Y0116330D02*
X0167976Y0116330D01*
X0169117Y0117329D02*
X0170201Y0117329D01*
X0170201Y0118327D02*
X0169796Y0118327D01*
X0169941Y0122321D02*
X0170201Y0122321D01*
X0170201Y0123320D02*
X0169468Y0123320D01*
X0170201Y0124318D02*
X0168470Y0124318D01*
X0170201Y0125317D02*
X0145580Y0125317D01*
X0161547Y0113335D02*
X0071100Y0113335D01*
X0071100Y0114333D02*
X0162545Y0114333D01*
X0161065Y0112336D02*
X0071100Y0112336D01*
X0071100Y0111338D02*
X0160700Y0111338D01*
X0160700Y0110339D02*
X0071100Y0110339D01*
X0071100Y0109341D02*
X0160785Y0109341D01*
X0161198Y0108342D02*
X0071100Y0108342D01*
X0071100Y0107344D02*
X0161868Y0107344D01*
X0162988Y0106345D02*
X0071100Y0106345D01*
X0071756Y0105347D02*
X0170201Y0105347D01*
X0170201Y0106345D02*
X0168012Y0106345D01*
X0169132Y0107344D02*
X0170201Y0107344D01*
X0170201Y0108342D02*
X0169802Y0108342D01*
X0169935Y0112336D02*
X0170201Y0112336D01*
X0170201Y0113335D02*
X0169453Y0113335D01*
X0170201Y0114333D02*
X0168455Y0114333D01*
X0168440Y0104348D02*
X0170201Y0104348D01*
X0170201Y0103350D02*
X0169439Y0103350D01*
X0169929Y0102351D02*
X0170201Y0102351D01*
X0170201Y0098357D02*
X0169808Y0098357D01*
X0170201Y0097359D02*
X0169147Y0097359D01*
X0170201Y0096360D02*
X0168048Y0096360D01*
X0168425Y0094363D02*
X0170201Y0094363D01*
X0170201Y0093365D02*
X0169424Y0093365D01*
X0169923Y0092366D02*
X0170201Y0092366D01*
X0170201Y0088372D02*
X0169814Y0088372D01*
X0170201Y0087373D02*
X0169162Y0087373D01*
X0170201Y0086375D02*
X0168084Y0086375D01*
X0168410Y0084378D02*
X0170201Y0084378D01*
X0170201Y0085376D02*
X0071100Y0085376D01*
X0071100Y0084378D02*
X0162590Y0084378D01*
X0161591Y0083379D02*
X0071100Y0083379D01*
X0071100Y0082381D02*
X0161084Y0082381D01*
X0160700Y0081382D02*
X0071100Y0081382D01*
X0071100Y0080384D02*
X0160700Y0080384D01*
X0160766Y0079385D02*
X0071100Y0079385D01*
X0071100Y0078387D02*
X0161180Y0078387D01*
X0161823Y0077388D02*
X0071100Y0077388D01*
X0071100Y0076390D02*
X0162880Y0076390D01*
X0162605Y0074393D02*
X0088944Y0074393D01*
X0089100Y0073394D02*
X0161606Y0073394D01*
X0161090Y0072396D02*
X0088857Y0072396D01*
X0088074Y0071397D02*
X0160700Y0071397D01*
X0160700Y0070399D02*
X0026300Y0070399D01*
X0026240Y0069400D02*
X0160760Y0069400D01*
X0161174Y0068402D02*
X0025826Y0068402D01*
X0025191Y0067403D02*
X0161809Y0067403D01*
X0162844Y0066405D02*
X0024156Y0066405D01*
X0024219Y0064569D02*
X0022455Y0065300D01*
X0020545Y0065300D01*
X0018781Y0064569D01*
X0017431Y0063219D01*
X0016700Y0061455D01*
X0016700Y0059545D01*
X0017431Y0057781D01*
X0018781Y0056431D01*
X0020545Y0055700D01*
X0022455Y0055700D01*
X0024219Y0056431D01*
X0025569Y0057781D01*
X0026300Y0059545D01*
X0026300Y0061455D01*
X0025569Y0063219D01*
X0024219Y0064569D01*
X0024380Y0064408D02*
X0162619Y0064408D01*
X0161621Y0063409D02*
X0025379Y0063409D01*
X0025904Y0062411D02*
X0161096Y0062411D01*
X0160700Y0061412D02*
X0026300Y0061412D01*
X0026300Y0060414D02*
X0160700Y0060414D01*
X0160754Y0059415D02*
X0026246Y0059415D01*
X0025833Y0058417D02*
X0161167Y0058417D01*
X0161794Y0057418D02*
X0025206Y0057418D01*
X0024192Y0056420D02*
X0162808Y0056420D01*
X0168192Y0056420D02*
X0170201Y0056420D01*
X0170201Y0057418D02*
X0169206Y0057418D01*
X0169833Y0058417D02*
X0170201Y0058417D01*
X0170201Y0055421D02*
X0015500Y0055421D01*
X0015500Y0054423D02*
X0170201Y0054423D01*
X0170201Y0053424D02*
X0015500Y0053424D01*
X0015500Y0052426D02*
X0170201Y0052426D01*
X0170201Y0051427D02*
X0015500Y0051427D01*
X0015500Y0050429D02*
X0036640Y0050429D01*
X0036781Y0050569D02*
X0035431Y0049219D01*
X0034700Y0047455D01*
X0034700Y0045545D01*
X0035431Y0043781D01*
X0036781Y0042431D01*
X0038545Y0041700D01*
X0040455Y0041700D01*
X0042219Y0042431D01*
X0043569Y0043781D01*
X0044300Y0045545D01*
X0044300Y0047455D01*
X0043569Y0049219D01*
X0042219Y0050569D01*
X0040455Y0051300D01*
X0038545Y0051300D01*
X0036781Y0050569D01*
X0035642Y0049430D02*
X0015500Y0049430D01*
X0015500Y0048432D02*
X0035105Y0048432D01*
X0034700Y0047433D02*
X0015500Y0047433D01*
X0015500Y0046434D02*
X0034700Y0046434D01*
X0034745Y0045436D02*
X0015500Y0045436D01*
X0015500Y0044437D02*
X0035159Y0044437D01*
X0035773Y0043439D02*
X0015500Y0043439D01*
X0015500Y0042440D02*
X0036771Y0042440D01*
X0042229Y0042440D02*
X0046771Y0042440D01*
X0046781Y0042431D02*
X0048545Y0041700D01*
X0050455Y0041700D01*
X0052219Y0042431D01*
X0053569Y0043781D01*
X0054300Y0045545D01*
X0054300Y0047455D01*
X0053569Y0049219D01*
X0052219Y0050569D01*
X0050455Y0051300D01*
X0048545Y0051300D01*
X0046781Y0050569D01*
X0045431Y0049219D01*
X0044700Y0047455D01*
X0044700Y0045545D01*
X0045431Y0043781D01*
X0046781Y0042431D01*
X0045773Y0043439D02*
X0043227Y0043439D01*
X0043841Y0044437D02*
X0045159Y0044437D01*
X0044745Y0045436D02*
X0044255Y0045436D01*
X0044300Y0046434D02*
X0044700Y0046434D01*
X0044700Y0047433D02*
X0044300Y0047433D01*
X0043895Y0048432D02*
X0045105Y0048432D01*
X0045642Y0049430D02*
X0043358Y0049430D01*
X0042360Y0050429D02*
X0046640Y0050429D01*
X0052360Y0050429D02*
X0056640Y0050429D01*
X0056781Y0050569D02*
X0055431Y0049219D01*
X0054700Y0047455D01*
X0054700Y0045545D01*
X0055431Y0043781D01*
X0056781Y0042431D01*
X0058545Y0041700D01*
X0060455Y0041700D01*
X0062219Y0042431D01*
X0063569Y0043781D01*
X0064300Y0045545D01*
X0064300Y0047455D01*
X0063569Y0049219D01*
X0062219Y0050569D01*
X0060455Y0051300D01*
X0058545Y0051300D01*
X0056781Y0050569D01*
X0055642Y0049430D02*
X0053358Y0049430D01*
X0053895Y0048432D02*
X0055105Y0048432D01*
X0054700Y0047433D02*
X0054300Y0047433D01*
X0054300Y0046434D02*
X0054700Y0046434D01*
X0054745Y0045436D02*
X0054255Y0045436D01*
X0053841Y0044437D02*
X0055159Y0044437D01*
X0055773Y0043439D02*
X0053227Y0043439D01*
X0052229Y0042440D02*
X0056771Y0042440D01*
X0062229Y0042440D02*
X0066771Y0042440D01*
X0066781Y0042431D02*
X0068545Y0041700D01*
X0070455Y0041700D01*
X0072219Y0042431D01*
X0073569Y0043781D01*
X0074300Y0045545D01*
X0074300Y0047455D01*
X0073569Y0049219D01*
X0072219Y0050569D01*
X0070455Y0051300D01*
X0068545Y0051300D01*
X0066781Y0050569D01*
X0065431Y0049219D01*
X0064700Y0047455D01*
X0064700Y0045545D01*
X0065431Y0043781D01*
X0066781Y0042431D01*
X0065773Y0043439D02*
X0063227Y0043439D01*
X0063841Y0044437D02*
X0065159Y0044437D01*
X0064745Y0045436D02*
X0064255Y0045436D01*
X0064300Y0046434D02*
X0064700Y0046434D01*
X0064700Y0047433D02*
X0064300Y0047433D01*
X0063895Y0048432D02*
X0065105Y0048432D01*
X0065642Y0049430D02*
X0063358Y0049430D01*
X0062360Y0050429D02*
X0066640Y0050429D01*
X0072360Y0050429D02*
X0076640Y0050429D01*
X0076781Y0050569D02*
X0075431Y0049219D01*
X0074700Y0047455D01*
X0074700Y0045545D01*
X0075431Y0043781D01*
X0076781Y0042431D01*
X0078545Y0041700D01*
X0080455Y0041700D01*
X0082219Y0042431D01*
X0083569Y0043781D01*
X0084300Y0045545D01*
X0084300Y0047455D01*
X0083569Y0049219D01*
X0082219Y0050569D01*
X0080455Y0051300D01*
X0078545Y0051300D01*
X0076781Y0050569D01*
X0075642Y0049430D02*
X0073358Y0049430D01*
X0073895Y0048432D02*
X0075105Y0048432D01*
X0074700Y0047433D02*
X0074300Y0047433D01*
X0074300Y0046434D02*
X0074700Y0046434D01*
X0074745Y0045436D02*
X0074255Y0045436D01*
X0073841Y0044437D02*
X0075159Y0044437D01*
X0075773Y0043439D02*
X0073227Y0043439D01*
X0072229Y0042440D02*
X0076771Y0042440D01*
X0082229Y0042440D02*
X0086771Y0042440D01*
X0086781Y0042431D02*
X0088545Y0041700D01*
X0090455Y0041700D01*
X0092219Y0042431D01*
X0093569Y0043781D01*
X0094300Y0045545D01*
X0094300Y0047455D01*
X0093569Y0049219D01*
X0092219Y0050569D01*
X0090455Y0051300D01*
X0088545Y0051300D01*
X0086781Y0050569D01*
X0085431Y0049219D01*
X0084700Y0047455D01*
X0084700Y0045545D01*
X0085431Y0043781D01*
X0086781Y0042431D01*
X0085773Y0043439D02*
X0083227Y0043439D01*
X0083841Y0044437D02*
X0085159Y0044437D01*
X0084745Y0045436D02*
X0084255Y0045436D01*
X0084300Y0046434D02*
X0084700Y0046434D01*
X0084700Y0047433D02*
X0084300Y0047433D01*
X0083895Y0048432D02*
X0085105Y0048432D01*
X0085642Y0049430D02*
X0083358Y0049430D01*
X0082360Y0050429D02*
X0086640Y0050429D01*
X0092360Y0050429D02*
X0096640Y0050429D01*
X0096781Y0050569D02*
X0095431Y0049219D01*
X0094700Y0047455D01*
X0094700Y0045545D01*
X0095431Y0043781D01*
X0096781Y0042431D01*
X0098545Y0041700D01*
X0100455Y0041700D01*
X0102219Y0042431D01*
X0103569Y0043781D01*
X0104300Y0045545D01*
X0104300Y0047455D01*
X0103569Y0049219D01*
X0102219Y0050569D01*
X0100455Y0051300D01*
X0098545Y0051300D01*
X0096781Y0050569D01*
X0095642Y0049430D02*
X0093358Y0049430D01*
X0093895Y0048432D02*
X0095105Y0048432D01*
X0094700Y0047433D02*
X0094300Y0047433D01*
X0094300Y0046434D02*
X0094700Y0046434D01*
X0094745Y0045436D02*
X0094255Y0045436D01*
X0093841Y0044437D02*
X0095159Y0044437D01*
X0095773Y0043439D02*
X0093227Y0043439D01*
X0092229Y0042440D02*
X0096771Y0042440D01*
X0102229Y0042440D02*
X0106771Y0042440D01*
X0106781Y0042431D02*
X0108545Y0041700D01*
X0110455Y0041700D01*
X0112219Y0042431D01*
X0113569Y0043781D01*
X0114300Y0045545D01*
X0114300Y0047455D01*
X0113569Y0049219D01*
X0112219Y0050569D01*
X0110455Y0051300D01*
X0108545Y0051300D01*
X0106781Y0050569D01*
X0105431Y0049219D01*
X0104700Y0047455D01*
X0104700Y0045545D01*
X0105431Y0043781D01*
X0106781Y0042431D01*
X0105773Y0043439D02*
X0103227Y0043439D01*
X0103841Y0044437D02*
X0105159Y0044437D01*
X0104745Y0045436D02*
X0104255Y0045436D01*
X0104300Y0046434D02*
X0104700Y0046434D01*
X0104700Y0047433D02*
X0104300Y0047433D01*
X0103895Y0048432D02*
X0105105Y0048432D01*
X0105642Y0049430D02*
X0103358Y0049430D01*
X0102360Y0050429D02*
X0106640Y0050429D01*
X0112360Y0050429D02*
X0116640Y0050429D01*
X0116781Y0050569D02*
X0115431Y0049219D01*
X0114700Y0047455D01*
X0114700Y0045545D01*
X0115431Y0043781D01*
X0116781Y0042431D01*
X0118545Y0041700D01*
X0120455Y0041700D01*
X0122219Y0042431D01*
X0123569Y0043781D01*
X0124300Y0045545D01*
X0124300Y0047455D01*
X0123569Y0049219D01*
X0122219Y0050569D01*
X0120455Y0051300D01*
X0118545Y0051300D01*
X0116781Y0050569D01*
X0115642Y0049430D02*
X0113358Y0049430D01*
X0113895Y0048432D02*
X0115105Y0048432D01*
X0114700Y0047433D02*
X0114300Y0047433D01*
X0114300Y0046434D02*
X0114700Y0046434D01*
X0114745Y0045436D02*
X0114255Y0045436D01*
X0113841Y0044437D02*
X0115159Y0044437D01*
X0115773Y0043439D02*
X0113227Y0043439D01*
X0112229Y0042440D02*
X0116771Y0042440D01*
X0122229Y0042440D02*
X0126771Y0042440D01*
X0126781Y0042431D02*
X0128545Y0041700D01*
X0130455Y0041700D01*
X0132219Y0042431D01*
X0133569Y0043781D01*
X0134300Y0045545D01*
X0134300Y0047455D01*
X0133569Y0049219D01*
X0132219Y0050569D01*
X0130455Y0051300D01*
X0128545Y0051300D01*
X0126781Y0050569D01*
X0125431Y0049219D01*
X0124700Y0047455D01*
X0124700Y0045545D01*
X0125431Y0043781D01*
X0126781Y0042431D01*
X0125773Y0043439D02*
X0123227Y0043439D01*
X0123841Y0044437D02*
X0125159Y0044437D01*
X0124745Y0045436D02*
X0124255Y0045436D01*
X0124300Y0046434D02*
X0124700Y0046434D01*
X0124700Y0047433D02*
X0124300Y0047433D01*
X0123895Y0048432D02*
X0125105Y0048432D01*
X0125642Y0049430D02*
X0123358Y0049430D01*
X0122360Y0050429D02*
X0126640Y0050429D01*
X0132360Y0050429D02*
X0136640Y0050429D01*
X0136781Y0050569D02*
X0135431Y0049219D01*
X0134700Y0047455D01*
X0134700Y0045545D01*
X0135431Y0043781D01*
X0136781Y0042431D01*
X0138545Y0041700D01*
X0140455Y0041700D01*
X0142219Y0042431D01*
X0143569Y0043781D01*
X0144300Y0045545D01*
X0144300Y0047455D01*
X0143569Y0049219D01*
X0142219Y0050569D01*
X0140455Y0051300D01*
X0138545Y0051300D01*
X0136781Y0050569D01*
X0135642Y0049430D02*
X0133358Y0049430D01*
X0133895Y0048432D02*
X0135105Y0048432D01*
X0134700Y0047433D02*
X0134300Y0047433D01*
X0134300Y0046434D02*
X0134700Y0046434D01*
X0134745Y0045436D02*
X0134255Y0045436D01*
X0133841Y0044437D02*
X0135159Y0044437D01*
X0135773Y0043439D02*
X0133227Y0043439D01*
X0132229Y0042440D02*
X0136771Y0042440D01*
X0142229Y0042440D02*
X0146771Y0042440D01*
X0146781Y0042431D02*
X0148545Y0041700D01*
X0150455Y0041700D01*
X0152219Y0042431D01*
X0153569Y0043781D01*
X0154300Y0045545D01*
X0154300Y0047455D01*
X0153569Y0049219D01*
X0152219Y0050569D01*
X0150455Y0051300D01*
X0148545Y0051300D01*
X0146781Y0050569D01*
X0145431Y0049219D01*
X0144700Y0047455D01*
X0144700Y0045545D01*
X0145431Y0043781D01*
X0146781Y0042431D01*
X0145773Y0043439D02*
X0143227Y0043439D01*
X0143841Y0044437D02*
X0145159Y0044437D01*
X0144745Y0045436D02*
X0144255Y0045436D01*
X0144300Y0046434D02*
X0144700Y0046434D01*
X0144700Y0047433D02*
X0144300Y0047433D01*
X0143895Y0048432D02*
X0145105Y0048432D01*
X0145642Y0049430D02*
X0143358Y0049430D01*
X0142360Y0050429D02*
X0146640Y0050429D01*
X0152360Y0050429D02*
X0170201Y0050429D01*
X0170201Y0049430D02*
X0153358Y0049430D01*
X0153895Y0048432D02*
X0170201Y0048432D01*
X0170201Y0047433D02*
X0154300Y0047433D01*
X0154300Y0046434D02*
X0170201Y0046434D01*
X0170201Y0045436D02*
X0154255Y0045436D01*
X0153841Y0044437D02*
X0170201Y0044437D01*
X0170201Y0043439D02*
X0153227Y0043439D01*
X0152229Y0042440D02*
X0170201Y0042440D01*
X0170201Y0041442D02*
X0015500Y0041442D01*
X0015500Y0040443D02*
X0170201Y0040443D01*
X0170201Y0062411D02*
X0169904Y0062411D01*
X0170201Y0063409D02*
X0169379Y0063409D01*
X0170201Y0064408D02*
X0168380Y0064408D01*
X0168156Y0066405D02*
X0170201Y0066405D01*
X0170201Y0067403D02*
X0169191Y0067403D01*
X0169826Y0068402D02*
X0170201Y0068402D01*
X0170201Y0065406D02*
X0015500Y0065406D01*
X0015500Y0064408D02*
X0018619Y0064408D01*
X0017621Y0063409D02*
X0015500Y0063409D01*
X0015500Y0062411D02*
X0017096Y0062411D01*
X0016700Y0061412D02*
X0015500Y0061412D01*
X0015500Y0060414D02*
X0016700Y0060414D01*
X0016754Y0059415D02*
X0015500Y0059415D01*
X0015500Y0058417D02*
X0017167Y0058417D01*
X0017794Y0057418D02*
X0015500Y0057418D01*
X0015500Y0056420D02*
X0018808Y0056420D01*
X0018844Y0066405D02*
X0015500Y0066405D01*
X0015500Y0067403D02*
X0017809Y0067403D01*
X0017174Y0068402D02*
X0015500Y0068402D01*
X0015500Y0069400D02*
X0016760Y0069400D01*
X0016700Y0070399D02*
X0015500Y0070399D01*
X0015500Y0071397D02*
X0016700Y0071397D01*
X0017090Y0072396D02*
X0015500Y0072396D01*
X0015500Y0073394D02*
X0017606Y0073394D01*
X0024120Y0076390D02*
X0067900Y0076390D01*
X0067900Y0077388D02*
X0025177Y0077388D01*
X0025820Y0078387D02*
X0067900Y0078387D01*
X0067900Y0079385D02*
X0026234Y0079385D01*
X0026300Y0080384D02*
X0067900Y0080384D01*
X0067900Y0081382D02*
X0026300Y0081382D01*
X0025916Y0082381D02*
X0067900Y0082381D01*
X0067900Y0083379D02*
X0025409Y0083379D01*
X0024410Y0084378D02*
X0067900Y0084378D01*
X0071100Y0086375D02*
X0162916Y0086375D01*
X0161838Y0087373D02*
X0071100Y0087373D01*
X0071100Y0088372D02*
X0161186Y0088372D01*
X0160772Y0089370D02*
X0071100Y0089370D01*
X0071100Y0090369D02*
X0160700Y0090369D01*
X0160700Y0091368D02*
X0071100Y0091368D01*
X0071100Y0092366D02*
X0161077Y0092366D01*
X0161576Y0093365D02*
X0071100Y0093365D01*
X0071100Y0094363D02*
X0162575Y0094363D01*
X0162952Y0096360D02*
X0071100Y0096360D01*
X0071100Y0095362D02*
X0170201Y0095362D01*
X0161853Y0097359D02*
X0071100Y0097359D01*
X0071100Y0098357D02*
X0161192Y0098357D01*
X0160779Y0099356D02*
X0071100Y0099356D01*
X0071100Y0100354D02*
X0160700Y0100354D01*
X0160700Y0101353D02*
X0071100Y0101353D01*
X0071528Y0102351D02*
X0161071Y0102351D01*
X0161561Y0103350D02*
X0072045Y0103350D01*
X0072100Y0104348D02*
X0162560Y0104348D01*
X0169409Y0083379D02*
X0170201Y0083379D01*
X0170201Y0082381D02*
X0169916Y0082381D01*
X0169820Y0078387D02*
X0170201Y0078387D01*
X0170201Y0077388D02*
X0169177Y0077388D01*
X0170201Y0076390D02*
X0168120Y0076390D01*
X0168395Y0074393D02*
X0170201Y0074393D01*
X0170201Y0075391D02*
X0088286Y0075391D01*
X0084714Y0075391D02*
X0071100Y0075391D01*
X0018916Y0086375D02*
X0015500Y0086375D01*
X0015500Y0087373D02*
X0017838Y0087373D01*
X0017186Y0088372D02*
X0015500Y0088372D01*
X0015500Y0089370D02*
X0016772Y0089370D01*
X0016700Y0090369D02*
X0015500Y0090369D01*
X0015500Y0091368D02*
X0016700Y0091368D01*
X0017077Y0092366D02*
X0015500Y0092366D01*
X0015500Y0093365D02*
X0017576Y0093365D01*
X0018575Y0094363D02*
X0015500Y0094363D01*
X0167940Y0126315D02*
X0170201Y0126315D01*
X0170201Y0127314D02*
X0169102Y0127314D01*
X0169789Y0128312D02*
X0170201Y0128312D01*
X0170201Y0073394D02*
X0169394Y0073394D01*
X0169910Y0072396D02*
X0170201Y0072396D01*
D15*
X0131500Y0118500D03*
X0142500Y0135500D03*
X0141500Y0139500D03*
X0142500Y0150000D03*
X0152500Y0160500D03*
X0148500Y0164500D03*
X0117500Y0143500D03*
X0115500Y0155500D03*
X0089250Y0157750D03*
X0086500Y0143500D03*
X0085500Y0127500D03*
X0086500Y0122500D03*
X0080500Y0123500D03*
X0076500Y0127500D03*
X0069500Y0104000D03*
X0046500Y0104500D03*
X0073500Y0068500D03*
X0086500Y0073500D03*
X0109500Y0118500D03*
M02*
