G75*
%MOIN*%
%OFA0B0*%
%FSLAX25Y25*%
%IPPOS*%
%LPD*%
%AMOC8*
5,1,8,0,0,1.08239X$1,22.5*
%
%ADD10C,0.05324*%
%ADD11R,0.10443X0.10443*%
%ADD12C,0.03356*%
%ADD13C,0.08000*%
%ADD14R,0.06600X0.06600*%
D10*
X0044783Y0171957D02*
X0049508Y0171957D01*
X0075492Y0171957D02*
X0080217Y0171957D01*
D11*
X0073600Y0182980D03*
X0051400Y0182980D03*
D12*
X0054823Y0175500D03*
X0070177Y0175500D03*
D13*
X0039500Y0046500D03*
X0049500Y0046500D03*
X0059500Y0046500D03*
X0069500Y0046500D03*
X0079500Y0046500D03*
X0089500Y0046500D03*
X0099500Y0046500D03*
X0109500Y0046500D03*
X0119500Y0046500D03*
X0129500Y0046500D03*
X0139500Y0046500D03*
X0149500Y0046500D03*
X0165500Y0060500D03*
X0165500Y0070500D03*
X0165500Y0080500D03*
X0165500Y0090500D03*
X0165500Y0100500D03*
X0165500Y0110500D03*
X0165500Y0120500D03*
X0165500Y0130500D03*
X0165500Y0140500D03*
X0165500Y0150500D03*
X0165500Y0160500D03*
X0165500Y0170500D03*
X0118300Y0168100D03*
X0118300Y0185900D03*
X0092700Y0185900D03*
X0092700Y0168100D03*
X0053500Y0155500D03*
X0043500Y0155500D03*
X0021500Y0150500D03*
X0021500Y0160500D03*
X0021500Y0170500D03*
X0021500Y0140500D03*
X0021500Y0130500D03*
X0021500Y0120500D03*
X0021500Y0110500D03*
X0021500Y0100500D03*
X0021500Y0090500D03*
X0021500Y0080500D03*
X0021500Y0070500D03*
X0021500Y0060500D03*
D14*
X0132500Y0175500D03*
X0132500Y0185500D03*
X0142500Y0185500D03*
X0142500Y0175500D03*
X0152500Y0175500D03*
X0152500Y0185500D03*
M02*
