%
M48
M72
T01C0.01600
T02C0.02756
T03C0.03150
T04C0.03543
T05C0.04000
%
T01
X73500Y68500
X86500Y73500
X69500Y104000
X86500Y122500
X85500Y127500
X80500Y123500
X76500Y127500
X86500Y143500
X89250Y157750
X115500Y155500
X117500Y143500
X109500Y118500
X131500Y118500
X142500Y135500
X141500Y139500
X142500Y150000
X152500Y160500
X148500Y164500
X46500Y104500
T02
X54823Y175500
X70177Y175500
T03
X75492Y171957
X49508Y171957
T04
X51400Y182980
X73600Y182980
T05
X39500Y46500
X49500Y46500
X59500Y46500
X69500Y46500
X79500Y46500
X89500Y46500
X99500Y46500
X109500Y46500
X119500Y46500
X129500Y46500
X139500Y46500
X149500Y46500
X165500Y60500
X165500Y70500
X165500Y80500
X165500Y90500
X165500Y100500
X165500Y110500
X165500Y120500
X165500Y130500
X165500Y140500
X165500Y150500
X165500Y160500
X165500Y170500
X152500Y175500
X152500Y185500
X142500Y185500
X142500Y175500
X132500Y175500
X132500Y185500
X118300Y185900
X118300Y168100
X92700Y168100
X92700Y185900
X53500Y155500
X43500Y155500
X21500Y150500
X21500Y160500
X21500Y170500
X21500Y140500
X21500Y130500
X21500Y120500
X21500Y110500
X21500Y100500
X21500Y90500
X21500Y80500
X21500Y70500
X21500Y60500
M30
