G75*
%MOIN*%
%OFA0B0*%
%FSLAX25Y25*%
%IPPOS*%
%LPD*%
%AMOC8*
5,1,8,0,0,1.08239X$1,22.5*
%
%ADD10C,0.00500*%
%ADD11C,0.00800*%
%ADD12C,0.00600*%
%ADD13C,0.03247*%
%ADD14C,0.00394*%
%ADD15C,0.01000*%
D10*
X0039548Y0052750D02*
X0039548Y0054101D01*
X0039998Y0054552D01*
X0040899Y0054552D01*
X0041349Y0054101D01*
X0041349Y0052750D01*
X0042250Y0052750D02*
X0039548Y0052750D01*
X0039548Y0055697D02*
X0039548Y0057048D01*
X0039998Y0057498D01*
X0040448Y0057498D01*
X0040899Y0057048D01*
X0040899Y0055697D01*
X0040899Y0057048D02*
X0041349Y0057498D01*
X0041800Y0057498D01*
X0042250Y0057048D01*
X0042250Y0055697D01*
X0039548Y0055697D01*
X0040448Y0058643D02*
X0039548Y0059544D01*
X0042250Y0059544D01*
X0042250Y0058643D02*
X0042250Y0060445D01*
X0041800Y0061590D02*
X0039998Y0063391D01*
X0041800Y0063391D01*
X0042250Y0062941D01*
X0042250Y0062040D01*
X0041800Y0061590D01*
X0039998Y0061590D01*
X0039548Y0062040D01*
X0039548Y0062941D01*
X0039998Y0063391D01*
X0037490Y0061452D02*
X0037490Y0058750D01*
X0036590Y0058750D02*
X0038391Y0058750D01*
X0036590Y0060552D02*
X0037490Y0061452D01*
X0034544Y0061452D02*
X0034544Y0058750D01*
X0033643Y0058750D02*
X0035445Y0058750D01*
X0033643Y0060552D02*
X0034544Y0061452D01*
X0032498Y0060552D02*
X0032498Y0058750D01*
X0032498Y0060101D02*
X0030697Y0060101D01*
X0030697Y0060552D02*
X0030697Y0058750D01*
X0029552Y0060101D02*
X0029552Y0061002D01*
X0029101Y0061452D01*
X0027750Y0061452D01*
X0027750Y0058750D01*
X0027750Y0059651D02*
X0029101Y0059651D01*
X0029552Y0060101D01*
X0030697Y0060552D02*
X0031597Y0061452D01*
X0032498Y0060552D01*
X0032498Y0068750D02*
X0032498Y0070552D01*
X0031597Y0071452D01*
X0030697Y0070552D01*
X0030697Y0068750D01*
X0030697Y0070101D02*
X0032498Y0070101D01*
X0033643Y0070552D02*
X0034544Y0071452D01*
X0034544Y0068750D01*
X0033643Y0068750D02*
X0035445Y0068750D01*
X0036590Y0069200D02*
X0038391Y0071002D01*
X0038391Y0069200D01*
X0037941Y0068750D01*
X0037040Y0068750D01*
X0036590Y0069200D01*
X0036590Y0071002D01*
X0037040Y0071452D01*
X0037941Y0071452D01*
X0038391Y0071002D01*
X0037941Y0078750D02*
X0037040Y0078750D01*
X0036590Y0079200D01*
X0037040Y0080101D02*
X0038391Y0080101D01*
X0038391Y0079200D02*
X0038391Y0081002D01*
X0037941Y0081452D01*
X0037040Y0081452D01*
X0036590Y0081002D01*
X0036590Y0080552D01*
X0037040Y0080101D01*
X0037941Y0078750D02*
X0038391Y0079200D01*
X0035445Y0079200D02*
X0034994Y0078750D01*
X0034093Y0078750D01*
X0033643Y0079200D01*
X0035445Y0081002D01*
X0035445Y0079200D01*
X0035445Y0081002D02*
X0034994Y0081452D01*
X0034093Y0081452D01*
X0033643Y0081002D01*
X0033643Y0079200D01*
X0032498Y0078750D02*
X0032498Y0080552D01*
X0031597Y0081452D01*
X0030697Y0080552D01*
X0030697Y0078750D01*
X0030697Y0080101D02*
X0032498Y0080101D01*
X0029552Y0080101D02*
X0029101Y0079651D01*
X0027750Y0079651D01*
X0027750Y0078750D02*
X0027750Y0081452D01*
X0029101Y0081452D01*
X0029552Y0081002D01*
X0029552Y0080101D01*
X0029101Y0071452D02*
X0029552Y0071002D01*
X0029552Y0070101D01*
X0029101Y0069651D01*
X0027750Y0069651D01*
X0027750Y0068750D02*
X0027750Y0071452D01*
X0029101Y0071452D01*
X0027750Y0088750D02*
X0027750Y0091452D01*
X0029101Y0091452D01*
X0029552Y0091002D01*
X0029552Y0090101D01*
X0029101Y0089651D01*
X0027750Y0089651D01*
X0030697Y0090101D02*
X0032498Y0090101D01*
X0032498Y0090552D02*
X0032498Y0088750D01*
X0033643Y0089200D02*
X0035445Y0091002D01*
X0035445Y0089200D01*
X0034994Y0088750D01*
X0034093Y0088750D01*
X0033643Y0089200D01*
X0033643Y0091002D01*
X0034093Y0091452D01*
X0034994Y0091452D01*
X0035445Y0091002D01*
X0036590Y0091002D02*
X0036590Y0090552D01*
X0037040Y0090101D01*
X0037941Y0090101D01*
X0038391Y0089651D01*
X0038391Y0089200D01*
X0037941Y0088750D01*
X0037040Y0088750D01*
X0036590Y0089200D01*
X0036590Y0089651D01*
X0037040Y0090101D01*
X0037941Y0090101D02*
X0038391Y0090552D01*
X0038391Y0091002D01*
X0037941Y0091452D01*
X0037040Y0091452D01*
X0036590Y0091002D01*
X0032498Y0090552D02*
X0031597Y0091452D01*
X0030697Y0090552D01*
X0030697Y0088750D01*
X0030697Y0098750D02*
X0030697Y0100552D01*
X0031597Y0101452D01*
X0032498Y0100552D01*
X0032498Y0098750D01*
X0033643Y0099200D02*
X0035445Y0101002D01*
X0035445Y0099200D01*
X0034994Y0098750D01*
X0034093Y0098750D01*
X0033643Y0099200D01*
X0033643Y0101002D01*
X0034093Y0101452D01*
X0034994Y0101452D01*
X0035445Y0101002D01*
X0036590Y0101452D02*
X0038391Y0101452D01*
X0038391Y0101002D01*
X0036590Y0099200D01*
X0036590Y0098750D01*
X0032498Y0100101D02*
X0030697Y0100101D01*
X0029552Y0100101D02*
X0029101Y0099651D01*
X0027750Y0099651D01*
X0027750Y0098750D02*
X0027750Y0101452D01*
X0029101Y0101452D01*
X0029552Y0101002D01*
X0029552Y0100101D01*
X0030697Y0108750D02*
X0030697Y0110552D01*
X0031597Y0111452D01*
X0032498Y0110552D01*
X0032498Y0108750D01*
X0033643Y0109200D02*
X0035445Y0111002D01*
X0035445Y0109200D01*
X0034994Y0108750D01*
X0034093Y0108750D01*
X0033643Y0109200D01*
X0033643Y0111002D01*
X0034093Y0111452D01*
X0034994Y0111452D01*
X0035445Y0111002D01*
X0036590Y0110101D02*
X0036590Y0109200D01*
X0037040Y0108750D01*
X0037941Y0108750D01*
X0038391Y0109200D01*
X0038391Y0109651D01*
X0037941Y0110101D01*
X0036590Y0110101D01*
X0037490Y0111002D01*
X0038391Y0111452D01*
X0032498Y0110101D02*
X0030697Y0110101D01*
X0029552Y0110101D02*
X0029101Y0109651D01*
X0027750Y0109651D01*
X0027750Y0108750D02*
X0027750Y0111452D01*
X0029101Y0111452D01*
X0029552Y0111002D01*
X0029552Y0110101D01*
X0030697Y0119750D02*
X0030697Y0121552D01*
X0031597Y0122452D01*
X0032498Y0121552D01*
X0032498Y0119750D01*
X0033643Y0120200D02*
X0035445Y0122002D01*
X0035445Y0120200D01*
X0034994Y0119750D01*
X0034093Y0119750D01*
X0033643Y0120200D01*
X0033643Y0122002D01*
X0034093Y0122452D01*
X0034994Y0122452D01*
X0035445Y0122002D01*
X0036590Y0122452D02*
X0036590Y0121101D01*
X0037490Y0121552D01*
X0037941Y0121552D01*
X0038391Y0121101D01*
X0038391Y0120200D01*
X0037941Y0119750D01*
X0037040Y0119750D01*
X0036590Y0120200D01*
X0036590Y0122452D02*
X0038391Y0122452D01*
X0032498Y0121101D02*
X0030697Y0121101D01*
X0029552Y0121101D02*
X0029101Y0120651D01*
X0027750Y0120651D01*
X0027750Y0119750D02*
X0027750Y0122452D01*
X0029101Y0122452D01*
X0029552Y0122002D01*
X0029552Y0121101D01*
X0030697Y0128750D02*
X0030697Y0130552D01*
X0031597Y0131452D01*
X0032498Y0130552D01*
X0032498Y0128750D01*
X0033643Y0129200D02*
X0035445Y0131002D01*
X0035445Y0129200D01*
X0034994Y0128750D01*
X0034093Y0128750D01*
X0033643Y0129200D01*
X0033643Y0131002D01*
X0034093Y0131452D01*
X0034994Y0131452D01*
X0035445Y0131002D01*
X0036590Y0130101D02*
X0038391Y0130101D01*
X0037941Y0128750D02*
X0037941Y0131452D01*
X0036590Y0130101D01*
X0032498Y0130101D02*
X0030697Y0130101D01*
X0029552Y0130101D02*
X0029101Y0129651D01*
X0027750Y0129651D01*
X0027750Y0128750D02*
X0027750Y0131452D01*
X0029101Y0131452D01*
X0029552Y0131002D01*
X0029552Y0130101D01*
X0030697Y0138750D02*
X0030697Y0140552D01*
X0031597Y0141452D01*
X0032498Y0140552D01*
X0032498Y0138750D01*
X0033643Y0139200D02*
X0035445Y0141002D01*
X0035445Y0139200D01*
X0034994Y0138750D01*
X0034093Y0138750D01*
X0033643Y0139200D01*
X0033643Y0141002D01*
X0034093Y0141452D01*
X0034994Y0141452D01*
X0035445Y0141002D01*
X0036590Y0141002D02*
X0036590Y0140552D01*
X0037040Y0140101D01*
X0038391Y0140101D01*
X0038391Y0139200D02*
X0038391Y0141002D01*
X0037941Y0141452D01*
X0037040Y0141452D01*
X0036590Y0141002D01*
X0036590Y0139200D02*
X0037040Y0138750D01*
X0037941Y0138750D01*
X0038391Y0139200D01*
X0032498Y0140101D02*
X0030697Y0140101D01*
X0029552Y0140101D02*
X0029101Y0139651D01*
X0027750Y0139651D01*
X0027750Y0138750D02*
X0027750Y0141452D01*
X0029101Y0141452D01*
X0029552Y0141002D01*
X0029552Y0140101D01*
X0030697Y0148750D02*
X0030697Y0150552D01*
X0031597Y0151452D01*
X0032498Y0150552D01*
X0032498Y0148750D01*
X0033643Y0149200D02*
X0035445Y0151002D01*
X0035445Y0149200D01*
X0034994Y0148750D01*
X0034093Y0148750D01*
X0033643Y0149200D01*
X0033643Y0151002D01*
X0034093Y0151452D01*
X0034994Y0151452D01*
X0035445Y0151002D01*
X0036590Y0151002D02*
X0036590Y0150552D01*
X0037040Y0150101D01*
X0037941Y0150101D01*
X0038391Y0149651D01*
X0038391Y0149200D01*
X0037941Y0148750D01*
X0037040Y0148750D01*
X0036590Y0149200D01*
X0036590Y0149651D01*
X0037040Y0150101D01*
X0037941Y0150101D02*
X0038391Y0150552D01*
X0038391Y0151002D01*
X0037941Y0151452D01*
X0037040Y0151452D01*
X0036590Y0151002D01*
X0032498Y0150101D02*
X0030697Y0150101D01*
X0029552Y0150101D02*
X0029552Y0151002D01*
X0029101Y0151452D01*
X0027750Y0151452D01*
X0027750Y0148750D01*
X0027750Y0149651D02*
X0029101Y0149651D01*
X0029552Y0150101D01*
X0030697Y0159750D02*
X0030697Y0161552D01*
X0031597Y0162452D01*
X0032498Y0161552D01*
X0032498Y0159750D01*
X0033643Y0160200D02*
X0035445Y0162002D01*
X0035445Y0160200D01*
X0034994Y0159750D01*
X0034093Y0159750D01*
X0033643Y0160200D01*
X0033643Y0162002D01*
X0034093Y0162452D01*
X0034994Y0162452D01*
X0035445Y0162002D01*
X0036590Y0162002D02*
X0037040Y0162452D01*
X0037941Y0162452D01*
X0038391Y0162002D01*
X0038391Y0161552D01*
X0037941Y0161101D01*
X0038391Y0160651D01*
X0038391Y0160200D01*
X0037941Y0159750D01*
X0037040Y0159750D01*
X0036590Y0160200D01*
X0037490Y0161101D02*
X0037941Y0161101D01*
X0032498Y0161101D02*
X0030697Y0161101D01*
X0029552Y0161101D02*
X0029552Y0162002D01*
X0029101Y0162452D01*
X0027750Y0162452D01*
X0027750Y0159750D01*
X0027750Y0160651D02*
X0029101Y0160651D01*
X0029552Y0161101D01*
X0030697Y0168750D02*
X0030697Y0170552D01*
X0031597Y0171452D01*
X0032498Y0170552D01*
X0032498Y0168750D01*
X0033643Y0169200D02*
X0035445Y0171002D01*
X0035445Y0169200D01*
X0034994Y0168750D01*
X0034093Y0168750D01*
X0033643Y0169200D01*
X0033643Y0171002D01*
X0034093Y0171452D01*
X0034994Y0171452D01*
X0035445Y0171002D01*
X0036590Y0171002D02*
X0037040Y0171452D01*
X0037941Y0171452D01*
X0038391Y0171002D01*
X0038391Y0170552D01*
X0036590Y0168750D01*
X0038391Y0168750D01*
X0032498Y0170101D02*
X0030697Y0170101D01*
X0029552Y0170101D02*
X0029101Y0169651D01*
X0027750Y0169651D01*
X0027750Y0168750D02*
X0027750Y0171452D01*
X0029101Y0171452D01*
X0029552Y0171002D01*
X0029552Y0170101D01*
X0041250Y0148452D02*
X0042601Y0148452D01*
X0043052Y0148002D01*
X0043052Y0146200D01*
X0042601Y0145750D01*
X0041250Y0145750D01*
X0041250Y0148452D01*
X0044197Y0147101D02*
X0045998Y0147101D01*
X0045097Y0148002D02*
X0045097Y0146200D01*
X0051250Y0145750D02*
X0052601Y0145750D01*
X0053052Y0146200D01*
X0053052Y0148002D01*
X0052601Y0148452D01*
X0051250Y0148452D01*
X0051250Y0145750D01*
X0054197Y0147101D02*
X0055998Y0147101D01*
X0055807Y0171169D02*
X0052657Y0171169D01*
X0069193Y0171169D02*
X0072343Y0171169D01*
X0077461Y0188886D02*
X0077461Y0192429D01*
X0047539Y0192429D01*
X0047539Y0188886D01*
X0121516Y0181751D02*
X0122790Y0180477D01*
X0124063Y0180477D01*
X0124063Y0181751D01*
X0122790Y0183025D01*
X0123918Y0183516D02*
X0125191Y0182242D01*
X0125828Y0182242D01*
X0126465Y0182879D01*
X0126465Y0183516D01*
X0127275Y0184326D02*
X0126001Y0185600D01*
X0126001Y0186237D01*
X0126638Y0186873D01*
X0127275Y0186873D01*
X0128549Y0185600D02*
X0128549Y0184963D01*
X0127912Y0184326D01*
X0127275Y0184326D01*
X0125191Y0184790D02*
X0124555Y0184790D01*
X0123918Y0184153D01*
X0123918Y0183516D01*
X0132797Y0171387D02*
X0131842Y0170431D01*
X0133753Y0168521D01*
X0134708Y0169476D01*
X0134708Y0170113D01*
X0133434Y0171387D01*
X0132797Y0171387D01*
X0131032Y0169622D02*
X0132943Y0167711D01*
X0129758Y0168348D01*
X0131669Y0166437D01*
X0130541Y0165946D02*
X0130541Y0165309D01*
X0129904Y0164672D01*
X0129267Y0164672D01*
X0127993Y0165946D01*
X0127993Y0166583D01*
X0128630Y0167220D01*
X0129267Y0167220D01*
X0129904Y0166583D02*
X0129267Y0165946D01*
X0129904Y0166583D02*
X0130541Y0165946D01*
X0138493Y0165083D02*
X0139130Y0165720D01*
X0139767Y0165720D01*
X0140086Y0165401D01*
X0140086Y0164764D01*
X0140723Y0164764D01*
X0141041Y0164446D01*
X0141041Y0163809D01*
X0140404Y0163172D01*
X0139767Y0163172D01*
X0139767Y0164446D02*
X0140086Y0164764D01*
X0138493Y0164446D02*
X0138493Y0165083D01*
X0141851Y0165256D02*
X0142169Y0165574D01*
X0142488Y0165256D01*
X0142169Y0164937D01*
X0141851Y0165256D01*
X0142893Y0166297D02*
X0143529Y0166297D01*
X0144166Y0166934D01*
X0144166Y0167571D01*
X0143848Y0167890D01*
X0143211Y0167890D01*
X0142893Y0167571D01*
X0143211Y0167890D02*
X0143211Y0168527D01*
X0142893Y0168845D01*
X0142256Y0168845D01*
X0141619Y0168208D01*
X0141619Y0167571D01*
X0143384Y0169973D02*
X0144658Y0168699D01*
X0145931Y0168699D01*
X0145931Y0169973D01*
X0144658Y0171247D01*
X0150175Y0165764D02*
X0151130Y0166720D01*
X0151767Y0166720D01*
X0152404Y0166083D01*
X0152404Y0165446D01*
X0151449Y0164490D01*
X0152086Y0163854D02*
X0150175Y0165764D01*
X0152086Y0165127D02*
X0153360Y0165127D01*
X0153851Y0166256D02*
X0154488Y0166256D01*
X0155125Y0166892D01*
X0155125Y0167529D01*
X0154806Y0167848D01*
X0154169Y0167848D01*
X0153532Y0167211D01*
X0152895Y0167211D01*
X0152577Y0167529D01*
X0152577Y0168166D01*
X0153214Y0168803D01*
X0153851Y0168803D01*
X0154342Y0169931D02*
X0155616Y0171205D01*
X0154979Y0170568D02*
X0156890Y0168657D01*
X0155994Y0161452D02*
X0154643Y0161452D01*
X0154643Y0158750D01*
X0155994Y0158750D01*
X0156445Y0159200D01*
X0156445Y0161002D01*
X0155994Y0161452D01*
X0153498Y0161452D02*
X0153498Y0158750D01*
X0151697Y0161452D01*
X0151697Y0158750D01*
X0150552Y0159200D02*
X0150552Y0160101D01*
X0149651Y0160101D01*
X0150552Y0159200D02*
X0150101Y0158750D01*
X0149200Y0158750D01*
X0148750Y0159200D01*
X0148750Y0161002D01*
X0149200Y0161452D01*
X0150101Y0161452D01*
X0150552Y0161002D01*
X0150101Y0151452D02*
X0150552Y0151002D01*
X0150552Y0150552D01*
X0150101Y0150101D01*
X0150552Y0149651D01*
X0150552Y0149200D01*
X0150101Y0148750D01*
X0149200Y0148750D01*
X0148750Y0149200D01*
X0149651Y0150101D02*
X0150101Y0150101D01*
X0150101Y0151452D02*
X0149200Y0151452D01*
X0148750Y0151002D01*
X0151697Y0149200D02*
X0152147Y0149200D01*
X0152147Y0148750D01*
X0151697Y0148750D01*
X0151697Y0149200D01*
X0153170Y0149200D02*
X0153620Y0148750D01*
X0154521Y0148750D01*
X0154971Y0149200D01*
X0154971Y0149651D01*
X0154521Y0150101D01*
X0154071Y0150101D01*
X0154521Y0150101D02*
X0154971Y0150552D01*
X0154971Y0151002D01*
X0154521Y0151452D01*
X0153620Y0151452D01*
X0153170Y0151002D01*
X0156116Y0151452D02*
X0156116Y0149651D01*
X0157017Y0148750D01*
X0157918Y0149651D01*
X0157918Y0151452D01*
X0158040Y0141452D02*
X0158941Y0141452D01*
X0159391Y0141002D01*
X0159391Y0140552D01*
X0158941Y0140101D01*
X0159391Y0139651D01*
X0159391Y0139200D01*
X0158941Y0138750D01*
X0158040Y0138750D01*
X0157590Y0139200D01*
X0156445Y0139200D02*
X0155994Y0138750D01*
X0155093Y0138750D01*
X0154643Y0139200D01*
X0156445Y0141002D01*
X0156445Y0139200D01*
X0156445Y0141002D02*
X0155994Y0141452D01*
X0155093Y0141452D01*
X0154643Y0141002D01*
X0154643Y0139200D01*
X0153498Y0139200D02*
X0153048Y0138750D01*
X0151697Y0138750D01*
X0151697Y0141452D01*
X0153048Y0141452D01*
X0153498Y0141002D01*
X0153498Y0140552D01*
X0153048Y0140101D01*
X0151697Y0140101D01*
X0150552Y0140101D02*
X0150101Y0139651D01*
X0148750Y0139651D01*
X0148750Y0138750D02*
X0148750Y0141452D01*
X0150101Y0141452D01*
X0150552Y0141002D01*
X0150552Y0140101D01*
X0153048Y0140101D02*
X0153498Y0139651D01*
X0153498Y0139200D01*
X0157590Y0141002D02*
X0158040Y0141452D01*
X0158490Y0140101D02*
X0158941Y0140101D01*
X0158941Y0131452D02*
X0158040Y0131452D01*
X0157590Y0131002D01*
X0156445Y0131002D02*
X0154643Y0129200D01*
X0155093Y0128750D01*
X0155994Y0128750D01*
X0156445Y0129200D01*
X0156445Y0131002D01*
X0155994Y0131452D01*
X0155093Y0131452D01*
X0154643Y0131002D01*
X0154643Y0129200D01*
X0153498Y0129200D02*
X0153048Y0128750D01*
X0151697Y0128750D01*
X0151697Y0131452D01*
X0153048Y0131452D01*
X0153498Y0131002D01*
X0153498Y0130552D01*
X0153048Y0130101D01*
X0151697Y0130101D01*
X0150552Y0130101D02*
X0150101Y0129651D01*
X0148750Y0129651D01*
X0148750Y0128750D02*
X0148750Y0131452D01*
X0150101Y0131452D01*
X0150552Y0131002D01*
X0150552Y0130101D01*
X0153048Y0130101D02*
X0153498Y0129651D01*
X0153498Y0129200D01*
X0157590Y0128750D02*
X0159391Y0130552D01*
X0159391Y0131002D01*
X0158941Y0131452D01*
X0159391Y0128750D02*
X0157590Y0128750D01*
X0157590Y0121452D02*
X0159391Y0121452D01*
X0159391Y0121002D01*
X0157590Y0119200D01*
X0157590Y0118750D01*
X0156445Y0118750D02*
X0154643Y0118750D01*
X0156445Y0120552D01*
X0156445Y0121002D01*
X0155994Y0121452D01*
X0155093Y0121452D01*
X0154643Y0121002D01*
X0153498Y0120552D02*
X0153498Y0118750D01*
X0153498Y0120101D02*
X0151697Y0120101D01*
X0151697Y0120552D02*
X0151697Y0118750D01*
X0150552Y0120101D02*
X0150101Y0119651D01*
X0148750Y0119651D01*
X0148750Y0118750D02*
X0148750Y0121452D01*
X0150101Y0121452D01*
X0150552Y0121002D01*
X0150552Y0120101D01*
X0151697Y0120552D02*
X0152597Y0121452D01*
X0153498Y0120552D01*
X0153048Y0111452D02*
X0151697Y0111452D01*
X0151697Y0108750D01*
X0153048Y0108750D01*
X0153498Y0109200D01*
X0153498Y0109651D01*
X0153048Y0110101D01*
X0151697Y0110101D01*
X0150552Y0110101D02*
X0150101Y0109651D01*
X0148750Y0109651D01*
X0148750Y0108750D02*
X0148750Y0111452D01*
X0150101Y0111452D01*
X0150552Y0111002D01*
X0150552Y0110101D01*
X0153048Y0110101D02*
X0153498Y0110552D01*
X0153498Y0111002D01*
X0153048Y0111452D01*
X0154643Y0111002D02*
X0155093Y0111452D01*
X0155994Y0111452D01*
X0156445Y0111002D01*
X0156445Y0110552D01*
X0154643Y0108750D01*
X0156445Y0108750D01*
X0157590Y0109200D02*
X0158040Y0108750D01*
X0158941Y0108750D01*
X0159391Y0109200D01*
X0159391Y0109651D01*
X0158941Y0110101D01*
X0158490Y0110101D01*
X0158941Y0110101D02*
X0159391Y0110552D01*
X0159391Y0111002D01*
X0158941Y0111452D01*
X0158040Y0111452D01*
X0157590Y0111002D01*
X0158040Y0101452D02*
X0157590Y0101002D01*
X0158040Y0101452D02*
X0158941Y0101452D01*
X0159391Y0101002D01*
X0159391Y0100552D01*
X0157590Y0098750D01*
X0159391Y0098750D01*
X0156445Y0098750D02*
X0154643Y0098750D01*
X0156445Y0100552D01*
X0156445Y0101002D01*
X0155994Y0101452D01*
X0155093Y0101452D01*
X0154643Y0101002D01*
X0153498Y0101002D02*
X0153048Y0101452D01*
X0151697Y0101452D01*
X0151697Y0098750D01*
X0153048Y0098750D01*
X0153498Y0099200D01*
X0153498Y0099651D01*
X0153048Y0100101D01*
X0151697Y0100101D01*
X0150552Y0100101D02*
X0150101Y0099651D01*
X0148750Y0099651D01*
X0148750Y0098750D02*
X0148750Y0101452D01*
X0150101Y0101452D01*
X0150552Y0101002D01*
X0150552Y0100101D01*
X0153048Y0100101D02*
X0153498Y0100552D01*
X0153498Y0101002D01*
X0152597Y0091452D02*
X0151697Y0090552D01*
X0151697Y0088750D01*
X0151697Y0090101D02*
X0153498Y0090101D01*
X0153498Y0090552D02*
X0153498Y0088750D01*
X0154643Y0088750D02*
X0156445Y0090552D01*
X0156445Y0091002D01*
X0155994Y0091452D01*
X0155093Y0091452D01*
X0154643Y0091002D01*
X0153498Y0090552D02*
X0152597Y0091452D01*
X0150552Y0091002D02*
X0150552Y0090101D01*
X0150101Y0089651D01*
X0148750Y0089651D01*
X0148750Y0088750D02*
X0148750Y0091452D01*
X0150101Y0091452D01*
X0150552Y0091002D01*
X0154643Y0088750D02*
X0156445Y0088750D01*
X0157590Y0089200D02*
X0158040Y0088750D01*
X0158941Y0088750D01*
X0159391Y0089200D01*
X0159391Y0090101D01*
X0158941Y0090552D01*
X0158490Y0090552D01*
X0157590Y0090101D01*
X0157590Y0091452D01*
X0159391Y0091452D01*
X0158941Y0081452D02*
X0157590Y0080101D01*
X0159391Y0080101D01*
X0158941Y0078750D02*
X0158941Y0081452D01*
X0156445Y0081002D02*
X0155994Y0081452D01*
X0155093Y0081452D01*
X0154643Y0081002D01*
X0153498Y0080552D02*
X0153498Y0078750D01*
X0154643Y0078750D02*
X0156445Y0080552D01*
X0156445Y0081002D01*
X0156445Y0078750D02*
X0154643Y0078750D01*
X0153498Y0080101D02*
X0151697Y0080101D01*
X0151697Y0080552D02*
X0152597Y0081452D01*
X0153498Y0080552D01*
X0151697Y0080552D02*
X0151697Y0078750D01*
X0150552Y0080101D02*
X0150101Y0079651D01*
X0148750Y0079651D01*
X0148750Y0078750D02*
X0148750Y0081452D01*
X0150101Y0081452D01*
X0150552Y0081002D01*
X0150552Y0080101D01*
X0150101Y0071452D02*
X0150552Y0071002D01*
X0150552Y0070101D01*
X0150101Y0069651D01*
X0148750Y0069651D01*
X0148750Y0068750D02*
X0148750Y0071452D01*
X0150101Y0071452D01*
X0151697Y0070552D02*
X0152597Y0071452D01*
X0153498Y0070552D01*
X0153498Y0068750D01*
X0154643Y0068750D02*
X0156445Y0070552D01*
X0156445Y0071002D01*
X0155994Y0071452D01*
X0155093Y0071452D01*
X0154643Y0071002D01*
X0153498Y0070101D02*
X0151697Y0070101D01*
X0151697Y0070552D02*
X0151697Y0068750D01*
X0154643Y0068750D02*
X0156445Y0068750D01*
X0157590Y0069200D02*
X0158040Y0068750D01*
X0158941Y0068750D01*
X0159391Y0069200D01*
X0159391Y0069651D01*
X0158941Y0070101D01*
X0158490Y0070101D01*
X0158941Y0070101D02*
X0159391Y0070552D01*
X0159391Y0071002D01*
X0158941Y0071452D01*
X0158040Y0071452D01*
X0157590Y0071002D01*
X0158040Y0061452D02*
X0157590Y0061002D01*
X0158040Y0061452D02*
X0158941Y0061452D01*
X0159391Y0061002D01*
X0159391Y0060552D01*
X0157590Y0058750D01*
X0159391Y0058750D01*
X0156445Y0058750D02*
X0154643Y0058750D01*
X0156445Y0060552D01*
X0156445Y0061002D01*
X0155994Y0061452D01*
X0155093Y0061452D01*
X0154643Y0061002D01*
X0153498Y0060552D02*
X0153498Y0058750D01*
X0153498Y0060101D02*
X0151697Y0060101D01*
X0151697Y0060552D02*
X0151697Y0058750D01*
X0150552Y0060101D02*
X0150101Y0059651D01*
X0148750Y0059651D01*
X0148750Y0058750D02*
X0148750Y0061452D01*
X0150101Y0061452D01*
X0150552Y0061002D01*
X0150552Y0060101D01*
X0151697Y0060552D02*
X0152597Y0061452D01*
X0153498Y0060552D01*
X0147250Y0060445D02*
X0147250Y0058643D01*
X0145448Y0060445D01*
X0144998Y0060445D01*
X0144548Y0059994D01*
X0144548Y0059093D01*
X0144998Y0058643D01*
X0145448Y0057498D02*
X0147250Y0057498D01*
X0145899Y0057498D02*
X0145899Y0055697D01*
X0145448Y0055697D02*
X0144548Y0056597D01*
X0145448Y0057498D01*
X0145448Y0055697D02*
X0147250Y0055697D01*
X0145899Y0054552D02*
X0146349Y0054101D01*
X0146349Y0052750D01*
X0147250Y0052750D02*
X0144548Y0052750D01*
X0144548Y0054101D01*
X0144998Y0054552D01*
X0145899Y0054552D01*
X0140250Y0055697D02*
X0138448Y0055697D01*
X0137548Y0056597D01*
X0138448Y0057498D01*
X0140250Y0057498D01*
X0140250Y0058643D02*
X0138448Y0060445D01*
X0137998Y0060445D01*
X0137548Y0059994D01*
X0137548Y0059093D01*
X0137998Y0058643D01*
X0138899Y0057498D02*
X0138899Y0055697D01*
X0138899Y0054552D02*
X0139349Y0054101D01*
X0139349Y0052750D01*
X0140250Y0052750D02*
X0137548Y0052750D01*
X0137548Y0054101D01*
X0137998Y0054552D01*
X0138899Y0054552D01*
X0140250Y0058643D02*
X0140250Y0060445D01*
X0139800Y0061590D02*
X0137998Y0063391D01*
X0139800Y0063391D01*
X0140250Y0062941D01*
X0140250Y0062040D01*
X0139800Y0061590D01*
X0137998Y0061590D01*
X0137548Y0062040D01*
X0137548Y0062941D01*
X0137998Y0063391D01*
X0131250Y0062941D02*
X0131250Y0062040D01*
X0130800Y0061590D01*
X0129899Y0062040D02*
X0129899Y0063391D01*
X0130800Y0063391D02*
X0128998Y0063391D01*
X0128548Y0062941D01*
X0128548Y0062040D01*
X0128998Y0061590D01*
X0129448Y0061590D01*
X0129899Y0062040D01*
X0131250Y0062941D02*
X0130800Y0063391D01*
X0131250Y0060445D02*
X0131250Y0058643D01*
X0131250Y0059544D02*
X0128548Y0059544D01*
X0129448Y0058643D01*
X0129448Y0057498D02*
X0128548Y0056597D01*
X0129448Y0055697D01*
X0131250Y0055697D01*
X0129899Y0055697D02*
X0129899Y0057498D01*
X0129448Y0057498D02*
X0131250Y0057498D01*
X0129899Y0054552D02*
X0130349Y0054101D01*
X0130349Y0052750D01*
X0131250Y0052750D02*
X0128548Y0052750D01*
X0128548Y0054101D01*
X0128998Y0054552D01*
X0129899Y0054552D01*
X0121250Y0055697D02*
X0119448Y0055697D01*
X0118548Y0056597D01*
X0119448Y0057498D01*
X0121250Y0057498D01*
X0121250Y0058643D02*
X0121250Y0060445D01*
X0121250Y0059544D02*
X0118548Y0059544D01*
X0119448Y0058643D01*
X0119899Y0057498D02*
X0119899Y0055697D01*
X0119899Y0054552D02*
X0120349Y0054101D01*
X0120349Y0052750D01*
X0121250Y0052750D02*
X0118548Y0052750D01*
X0118548Y0054101D01*
X0118998Y0054552D01*
X0119899Y0054552D01*
X0120349Y0061590D02*
X0119899Y0062040D01*
X0119899Y0062941D01*
X0120349Y0063391D01*
X0120800Y0063391D01*
X0121250Y0062941D01*
X0121250Y0062040D01*
X0120800Y0061590D01*
X0120349Y0061590D01*
X0119899Y0062040D02*
X0119448Y0061590D01*
X0118998Y0061590D01*
X0118548Y0062040D01*
X0118548Y0062941D01*
X0118998Y0063391D01*
X0119448Y0063391D01*
X0119899Y0062941D01*
X0111250Y0061590D02*
X0110800Y0061590D01*
X0108998Y0063391D01*
X0108548Y0063391D01*
X0108548Y0061590D01*
X0108548Y0059544D02*
X0111250Y0059544D01*
X0111250Y0058643D02*
X0111250Y0060445D01*
X0109448Y0058643D02*
X0108548Y0059544D01*
X0109448Y0057498D02*
X0108548Y0056597D01*
X0109448Y0055697D01*
X0111250Y0055697D01*
X0109899Y0055697D02*
X0109899Y0057498D01*
X0109448Y0057498D02*
X0111250Y0057498D01*
X0109899Y0054552D02*
X0110349Y0054101D01*
X0110349Y0052750D01*
X0111250Y0052750D02*
X0108548Y0052750D01*
X0108548Y0054101D01*
X0108998Y0054552D01*
X0109899Y0054552D01*
X0101250Y0055697D02*
X0099448Y0055697D01*
X0098548Y0056597D01*
X0099448Y0057498D01*
X0101250Y0057498D01*
X0101250Y0058643D02*
X0101250Y0060445D01*
X0101250Y0059544D02*
X0098548Y0059544D01*
X0099448Y0058643D01*
X0099899Y0057498D02*
X0099899Y0055697D01*
X0099899Y0054552D02*
X0100349Y0054101D01*
X0100349Y0052750D01*
X0101250Y0052750D02*
X0098548Y0052750D01*
X0098548Y0054101D01*
X0098998Y0054552D01*
X0099899Y0054552D01*
X0099899Y0061590D02*
X0099899Y0062941D01*
X0100349Y0063391D01*
X0100800Y0063391D01*
X0101250Y0062941D01*
X0101250Y0062040D01*
X0100800Y0061590D01*
X0099899Y0061590D01*
X0098998Y0062490D01*
X0098548Y0063391D01*
X0091250Y0062941D02*
X0091250Y0062040D01*
X0090800Y0061590D01*
X0089899Y0061590D02*
X0089448Y0062490D01*
X0089448Y0062941D01*
X0089899Y0063391D01*
X0090800Y0063391D01*
X0091250Y0062941D01*
X0089899Y0061590D02*
X0088548Y0061590D01*
X0088548Y0063391D01*
X0088548Y0059544D02*
X0091250Y0059544D01*
X0091250Y0058643D02*
X0091250Y0060445D01*
X0089448Y0058643D02*
X0088548Y0059544D01*
X0089448Y0057498D02*
X0088548Y0056597D01*
X0089448Y0055697D01*
X0091250Y0055697D01*
X0089899Y0055697D02*
X0089899Y0057498D01*
X0089448Y0057498D02*
X0091250Y0057498D01*
X0089899Y0054552D02*
X0090349Y0054101D01*
X0090349Y0052750D01*
X0091250Y0052750D02*
X0088548Y0052750D01*
X0088548Y0054101D01*
X0088998Y0054552D01*
X0089899Y0054552D01*
X0081250Y0055697D02*
X0079448Y0055697D01*
X0078548Y0056597D01*
X0079448Y0057498D01*
X0081250Y0057498D01*
X0081250Y0058643D02*
X0081250Y0060445D01*
X0081250Y0059544D02*
X0078548Y0059544D01*
X0079448Y0058643D01*
X0079899Y0057498D02*
X0079899Y0055697D01*
X0079899Y0054552D02*
X0080349Y0054101D01*
X0080349Y0052750D01*
X0081250Y0052750D02*
X0078548Y0052750D01*
X0078548Y0054101D01*
X0078998Y0054552D01*
X0079899Y0054552D01*
X0079899Y0061590D02*
X0079899Y0063391D01*
X0081250Y0062941D02*
X0078548Y0062941D01*
X0079899Y0061590D01*
X0071250Y0062040D02*
X0070800Y0061590D01*
X0071250Y0062040D02*
X0071250Y0062941D01*
X0070800Y0063391D01*
X0070349Y0063391D01*
X0069899Y0062941D01*
X0069899Y0062490D01*
X0069899Y0062941D02*
X0069448Y0063391D01*
X0068998Y0063391D01*
X0068548Y0062941D01*
X0068548Y0062040D01*
X0068998Y0061590D01*
X0068548Y0059544D02*
X0071250Y0059544D01*
X0071250Y0058643D02*
X0071250Y0060445D01*
X0069448Y0058643D02*
X0068548Y0059544D01*
X0069448Y0057498D02*
X0068548Y0056597D01*
X0069448Y0055697D01*
X0071250Y0055697D01*
X0069899Y0055697D02*
X0069899Y0057498D01*
X0069448Y0057498D02*
X0071250Y0057498D01*
X0069899Y0054552D02*
X0068998Y0054552D01*
X0068548Y0054101D01*
X0068548Y0052750D01*
X0071250Y0052750D01*
X0070349Y0052750D02*
X0070349Y0054101D01*
X0069899Y0054552D01*
X0061250Y0055697D02*
X0059448Y0055697D01*
X0058548Y0056597D01*
X0059448Y0057498D01*
X0061250Y0057498D01*
X0061250Y0058643D02*
X0061250Y0060445D01*
X0061250Y0059544D02*
X0058548Y0059544D01*
X0059448Y0058643D01*
X0059899Y0057498D02*
X0059899Y0055697D01*
X0059899Y0054552D02*
X0060349Y0054101D01*
X0060349Y0052750D01*
X0061250Y0052750D02*
X0058548Y0052750D01*
X0058548Y0054101D01*
X0058998Y0054552D01*
X0059899Y0054552D01*
X0058998Y0061590D02*
X0058548Y0062040D01*
X0058548Y0062941D01*
X0058998Y0063391D01*
X0059448Y0063391D01*
X0061250Y0061590D01*
X0061250Y0063391D01*
X0051250Y0063391D02*
X0051250Y0061590D01*
X0051250Y0062490D02*
X0048548Y0062490D01*
X0049448Y0061590D01*
X0051250Y0060445D02*
X0051250Y0058643D01*
X0051250Y0059544D02*
X0048548Y0059544D01*
X0049448Y0058643D01*
X0049448Y0057498D02*
X0049899Y0057048D01*
X0049899Y0055697D01*
X0049899Y0054552D02*
X0050349Y0054101D01*
X0050349Y0052750D01*
X0051250Y0052750D02*
X0048548Y0052750D01*
X0048548Y0054101D01*
X0048998Y0054552D01*
X0049899Y0054552D01*
X0051250Y0055697D02*
X0051250Y0057048D01*
X0050800Y0057498D01*
X0050349Y0057498D01*
X0049899Y0057048D01*
X0049448Y0057498D02*
X0048998Y0057498D01*
X0048548Y0057048D01*
X0048548Y0055697D01*
X0051250Y0055697D01*
X0144548Y0062490D02*
X0145448Y0061590D01*
X0144548Y0062490D02*
X0147250Y0062490D01*
X0147250Y0061590D02*
X0147250Y0063391D01*
X0162651Y0177250D02*
X0161750Y0178151D01*
X0161750Y0179952D01*
X0163552Y0179952D02*
X0163552Y0178151D01*
X0162651Y0177250D01*
X0164697Y0177700D02*
X0164697Y0179502D01*
X0165147Y0179952D01*
X0166048Y0179952D01*
X0166498Y0179502D01*
X0167643Y0179502D02*
X0167643Y0177700D01*
X0168093Y0177250D01*
X0168994Y0177250D01*
X0169445Y0177700D01*
X0169445Y0179502D02*
X0168994Y0179952D01*
X0168093Y0179952D01*
X0167643Y0179502D01*
X0166498Y0177700D02*
X0166048Y0177250D01*
X0165147Y0177250D01*
X0164697Y0177700D01*
X0165382Y0184629D02*
X0167184Y0184629D01*
X0168329Y0184629D02*
X0168329Y0187331D01*
X0168779Y0185980D02*
X0170130Y0184629D01*
X0168329Y0185529D02*
X0170130Y0187331D01*
X0165382Y0187331D02*
X0165382Y0184629D01*
X0164237Y0185079D02*
X0163787Y0184629D01*
X0162886Y0184629D01*
X0162436Y0185079D01*
X0162436Y0186881D01*
X0162886Y0187331D01*
X0163787Y0187331D01*
X0164237Y0186881D01*
X0161291Y0186881D02*
X0160841Y0187331D01*
X0159489Y0187331D01*
X0159489Y0184629D01*
X0160841Y0184629D01*
X0161291Y0185079D01*
X0161291Y0186881D01*
X0158344Y0186881D02*
X0157894Y0187331D01*
X0156993Y0187331D01*
X0156543Y0186881D01*
X0156543Y0186430D01*
X0156993Y0185980D01*
X0157894Y0185980D01*
X0158344Y0185529D01*
X0158344Y0185079D01*
X0157894Y0184629D01*
X0156993Y0184629D01*
X0156543Y0185079D01*
X0149648Y0189579D02*
X0149198Y0189129D01*
X0148297Y0189129D01*
X0147847Y0189579D01*
X0147847Y0191381D01*
X0148297Y0191831D01*
X0149198Y0191831D01*
X0149648Y0191381D01*
X0149648Y0189579D01*
X0146783Y0189129D02*
X0145882Y0189129D01*
X0146333Y0189129D02*
X0146333Y0191831D01*
X0146783Y0191831D02*
X0145882Y0191831D01*
X0144737Y0191381D02*
X0144287Y0191831D01*
X0142936Y0191831D01*
X0142936Y0189129D01*
X0144287Y0189129D01*
X0144737Y0189579D01*
X0144737Y0191381D01*
X0141791Y0191831D02*
X0141791Y0189129D01*
X0140890Y0190029D01*
X0139989Y0189129D01*
X0139989Y0191831D01*
X0138844Y0191381D02*
X0138394Y0191831D01*
X0137493Y0191831D01*
X0137043Y0191381D01*
X0137043Y0190930D01*
X0137493Y0190480D01*
X0138394Y0190480D01*
X0138844Y0190029D01*
X0138844Y0189579D01*
X0138394Y0189129D01*
X0137493Y0189129D01*
X0137043Y0189579D01*
D11*
X0042000Y0041500D02*
X0037000Y0041500D01*
X0034500Y0044000D01*
X0034500Y0049000D01*
X0037000Y0051500D01*
X0042000Y0051500D01*
X0044500Y0049000D01*
X0047000Y0051500D01*
X0052000Y0051500D01*
X0054500Y0049000D01*
X0057000Y0051500D01*
X0062000Y0051500D01*
X0064500Y0049000D01*
X0067000Y0051500D01*
X0072000Y0051500D01*
X0074500Y0049000D01*
X0077000Y0051500D01*
X0082000Y0051500D01*
X0084500Y0049000D01*
X0087000Y0051500D01*
X0092000Y0051500D01*
X0094500Y0049000D01*
X0097000Y0051500D01*
X0102000Y0051500D01*
X0104500Y0049000D01*
X0107000Y0051500D01*
X0112000Y0051500D01*
X0114500Y0049000D01*
X0117000Y0051500D01*
X0122000Y0051500D01*
X0124500Y0049000D01*
X0127000Y0051500D01*
X0132000Y0051500D01*
X0134500Y0049000D01*
X0137000Y0051500D01*
X0142000Y0051500D01*
X0144500Y0049000D01*
X0147000Y0051500D01*
X0152000Y0051500D01*
X0154500Y0049000D01*
X0154500Y0044000D01*
X0152000Y0041500D01*
X0147000Y0041500D01*
X0144500Y0044000D01*
X0142000Y0041500D01*
X0137000Y0041500D01*
X0134500Y0044000D01*
X0132000Y0041500D01*
X0127000Y0041500D01*
X0124500Y0044000D01*
X0122000Y0041500D01*
X0117000Y0041500D01*
X0114500Y0044000D01*
X0112000Y0041500D01*
X0107000Y0041500D01*
X0104500Y0044000D01*
X0102000Y0041500D01*
X0097000Y0041500D01*
X0094500Y0044000D01*
X0092000Y0041500D01*
X0087000Y0041500D01*
X0084500Y0044000D01*
X0082000Y0041500D01*
X0077000Y0041500D01*
X0074500Y0044000D01*
X0072000Y0041500D01*
X0067000Y0041500D01*
X0064500Y0044000D01*
X0062000Y0041500D01*
X0057000Y0041500D01*
X0054500Y0044000D01*
X0052000Y0041500D01*
X0047000Y0041500D01*
X0044500Y0044000D01*
X0042000Y0041500D01*
X0026500Y0058000D02*
X0024000Y0055500D01*
X0019000Y0055500D01*
X0016500Y0058000D01*
X0016500Y0063000D01*
X0019000Y0065500D01*
X0016500Y0068000D01*
X0016500Y0073000D01*
X0019000Y0075500D01*
X0016500Y0078000D01*
X0016500Y0083000D01*
X0019000Y0085500D01*
X0016500Y0088000D01*
X0016500Y0093000D01*
X0019000Y0095500D01*
X0016500Y0098000D01*
X0016500Y0103000D01*
X0019000Y0105500D01*
X0016500Y0108000D01*
X0016500Y0113000D01*
X0019000Y0115500D01*
X0016500Y0118000D01*
X0016500Y0123000D01*
X0019000Y0125500D01*
X0016500Y0128000D01*
X0016500Y0133000D01*
X0019000Y0135500D01*
X0016500Y0138000D01*
X0016500Y0143000D01*
X0019000Y0145500D01*
X0016500Y0148000D01*
X0016500Y0153000D01*
X0019000Y0155500D01*
X0016500Y0158000D01*
X0016500Y0163000D01*
X0019000Y0165500D01*
X0016500Y0168000D01*
X0016500Y0173000D01*
X0019000Y0175500D01*
X0024000Y0175500D01*
X0026500Y0173000D01*
X0026500Y0168000D01*
X0024000Y0165500D01*
X0026500Y0163000D01*
X0026500Y0158000D01*
X0024000Y0155500D01*
X0026500Y0153000D01*
X0026500Y0148000D01*
X0024000Y0145500D01*
X0026500Y0143000D01*
X0026500Y0138000D01*
X0024000Y0135500D01*
X0026500Y0133000D01*
X0026500Y0128000D01*
X0024000Y0125500D01*
X0026500Y0123000D01*
X0026500Y0118000D01*
X0024000Y0115500D01*
X0026500Y0113000D01*
X0026500Y0108000D01*
X0024000Y0105500D01*
X0026500Y0103000D01*
X0026500Y0098000D01*
X0024000Y0095500D01*
X0026500Y0093000D01*
X0026500Y0088000D01*
X0024000Y0085500D01*
X0026500Y0083000D01*
X0026500Y0078000D01*
X0024000Y0075500D01*
X0026500Y0073000D01*
X0026500Y0068000D01*
X0024000Y0065500D01*
X0026500Y0063000D01*
X0026500Y0058000D01*
X0060500Y0103000D02*
X0060500Y0105000D01*
X0059500Y0114500D02*
X0059500Y0116500D01*
X0059500Y0124500D02*
X0059500Y0126500D01*
X0078500Y0134500D02*
X0080500Y0134500D01*
X0082500Y0134500D02*
X0084500Y0134500D01*
X0077557Y0147709D02*
X0075443Y0147709D01*
X0071500Y0148809D02*
X0071500Y0152191D01*
X0068500Y0150500D02*
X0066500Y0150500D01*
X0058500Y0153000D02*
X0058500Y0158000D01*
X0056000Y0160500D01*
X0051000Y0160500D01*
X0048500Y0158000D01*
X0046000Y0160500D01*
X0041000Y0160500D01*
X0038500Y0158000D01*
X0038500Y0153000D01*
X0041000Y0150500D01*
X0046000Y0150500D01*
X0048500Y0153000D01*
X0051000Y0150500D01*
X0056000Y0150500D01*
X0058500Y0153000D01*
X0081500Y0152191D02*
X0081500Y0148809D01*
X0085500Y0150500D02*
X0087500Y0150500D01*
X0097000Y0165000D02*
X0114000Y0165000D01*
X0117500Y0173000D02*
X0117500Y0180929D01*
X0114000Y0189000D02*
X0097000Y0189000D01*
X0093500Y0181047D02*
X0093500Y0173000D01*
X0098500Y0177000D02*
X0098502Y0177172D01*
X0098508Y0177343D01*
X0098519Y0177515D01*
X0098534Y0177686D01*
X0098553Y0177857D01*
X0098576Y0178027D01*
X0098603Y0178197D01*
X0098635Y0178366D01*
X0098670Y0178534D01*
X0098710Y0178701D01*
X0098754Y0178867D01*
X0098801Y0179032D01*
X0098853Y0179196D01*
X0098909Y0179358D01*
X0098969Y0179519D01*
X0099033Y0179679D01*
X0099101Y0179837D01*
X0099172Y0179993D01*
X0099247Y0180147D01*
X0099327Y0180300D01*
X0099409Y0180450D01*
X0099496Y0180599D01*
X0099586Y0180745D01*
X0099680Y0180889D01*
X0099777Y0181031D01*
X0099878Y0181170D01*
X0099982Y0181307D01*
X0100089Y0181441D01*
X0100200Y0181572D01*
X0100313Y0181701D01*
X0100430Y0181827D01*
X0100550Y0181950D01*
X0100673Y0182070D01*
X0100799Y0182187D01*
X0100928Y0182300D01*
X0101059Y0182411D01*
X0101193Y0182518D01*
X0101330Y0182622D01*
X0101469Y0182723D01*
X0101611Y0182820D01*
X0101755Y0182914D01*
X0101901Y0183004D01*
X0102050Y0183091D01*
X0102200Y0183173D01*
X0102353Y0183253D01*
X0102507Y0183328D01*
X0102663Y0183399D01*
X0102821Y0183467D01*
X0102981Y0183531D01*
X0103142Y0183591D01*
X0103304Y0183647D01*
X0103468Y0183699D01*
X0103633Y0183746D01*
X0103799Y0183790D01*
X0103966Y0183830D01*
X0104134Y0183865D01*
X0104303Y0183897D01*
X0104473Y0183924D01*
X0104643Y0183947D01*
X0104814Y0183966D01*
X0104985Y0183981D01*
X0105157Y0183992D01*
X0105328Y0183998D01*
X0105500Y0184000D01*
X0105672Y0183998D01*
X0105843Y0183992D01*
X0106015Y0183981D01*
X0106186Y0183966D01*
X0106357Y0183947D01*
X0106527Y0183924D01*
X0106697Y0183897D01*
X0106866Y0183865D01*
X0107034Y0183830D01*
X0107201Y0183790D01*
X0107367Y0183746D01*
X0107532Y0183699D01*
X0107696Y0183647D01*
X0107858Y0183591D01*
X0108019Y0183531D01*
X0108179Y0183467D01*
X0108337Y0183399D01*
X0108493Y0183328D01*
X0108647Y0183253D01*
X0108800Y0183173D01*
X0108950Y0183091D01*
X0109099Y0183004D01*
X0109245Y0182914D01*
X0109389Y0182820D01*
X0109531Y0182723D01*
X0109670Y0182622D01*
X0109807Y0182518D01*
X0109941Y0182411D01*
X0110072Y0182300D01*
X0110201Y0182187D01*
X0110327Y0182070D01*
X0110450Y0181950D01*
X0110570Y0181827D01*
X0110687Y0181701D01*
X0110800Y0181572D01*
X0110911Y0181441D01*
X0111018Y0181307D01*
X0111122Y0181170D01*
X0111223Y0181031D01*
X0111320Y0180889D01*
X0111414Y0180745D01*
X0111504Y0180599D01*
X0111591Y0180450D01*
X0111673Y0180300D01*
X0111753Y0180147D01*
X0111828Y0179993D01*
X0111899Y0179837D01*
X0111967Y0179679D01*
X0112031Y0179519D01*
X0112091Y0179358D01*
X0112147Y0179196D01*
X0112199Y0179032D01*
X0112246Y0178867D01*
X0112290Y0178701D01*
X0112330Y0178534D01*
X0112365Y0178366D01*
X0112397Y0178197D01*
X0112424Y0178027D01*
X0112447Y0177857D01*
X0112466Y0177686D01*
X0112481Y0177515D01*
X0112492Y0177343D01*
X0112498Y0177172D01*
X0112500Y0177000D01*
X0112498Y0176828D01*
X0112492Y0176657D01*
X0112481Y0176485D01*
X0112466Y0176314D01*
X0112447Y0176143D01*
X0112424Y0175973D01*
X0112397Y0175803D01*
X0112365Y0175634D01*
X0112330Y0175466D01*
X0112290Y0175299D01*
X0112246Y0175133D01*
X0112199Y0174968D01*
X0112147Y0174804D01*
X0112091Y0174642D01*
X0112031Y0174481D01*
X0111967Y0174321D01*
X0111899Y0174163D01*
X0111828Y0174007D01*
X0111753Y0173853D01*
X0111673Y0173700D01*
X0111591Y0173550D01*
X0111504Y0173401D01*
X0111414Y0173255D01*
X0111320Y0173111D01*
X0111223Y0172969D01*
X0111122Y0172830D01*
X0111018Y0172693D01*
X0110911Y0172559D01*
X0110800Y0172428D01*
X0110687Y0172299D01*
X0110570Y0172173D01*
X0110450Y0172050D01*
X0110327Y0171930D01*
X0110201Y0171813D01*
X0110072Y0171700D01*
X0109941Y0171589D01*
X0109807Y0171482D01*
X0109670Y0171378D01*
X0109531Y0171277D01*
X0109389Y0171180D01*
X0109245Y0171086D01*
X0109099Y0170996D01*
X0108950Y0170909D01*
X0108800Y0170827D01*
X0108647Y0170747D01*
X0108493Y0170672D01*
X0108337Y0170601D01*
X0108179Y0170533D01*
X0108019Y0170469D01*
X0107858Y0170409D01*
X0107696Y0170353D01*
X0107532Y0170301D01*
X0107367Y0170254D01*
X0107201Y0170210D01*
X0107034Y0170170D01*
X0106866Y0170135D01*
X0106697Y0170103D01*
X0106527Y0170076D01*
X0106357Y0170053D01*
X0106186Y0170034D01*
X0106015Y0170019D01*
X0105843Y0170008D01*
X0105672Y0170002D01*
X0105500Y0170000D01*
X0105328Y0170002D01*
X0105157Y0170008D01*
X0104985Y0170019D01*
X0104814Y0170034D01*
X0104643Y0170053D01*
X0104473Y0170076D01*
X0104303Y0170103D01*
X0104134Y0170135D01*
X0103966Y0170170D01*
X0103799Y0170210D01*
X0103633Y0170254D01*
X0103468Y0170301D01*
X0103304Y0170353D01*
X0103142Y0170409D01*
X0102981Y0170469D01*
X0102821Y0170533D01*
X0102663Y0170601D01*
X0102507Y0170672D01*
X0102353Y0170747D01*
X0102200Y0170827D01*
X0102050Y0170909D01*
X0101901Y0170996D01*
X0101755Y0171086D01*
X0101611Y0171180D01*
X0101469Y0171277D01*
X0101330Y0171378D01*
X0101193Y0171482D01*
X0101059Y0171589D01*
X0100928Y0171700D01*
X0100799Y0171813D01*
X0100673Y0171930D01*
X0100550Y0172050D01*
X0100430Y0172173D01*
X0100313Y0172299D01*
X0100200Y0172428D01*
X0100089Y0172559D01*
X0099982Y0172693D01*
X0099878Y0172830D01*
X0099777Y0172969D01*
X0099680Y0173111D01*
X0099586Y0173255D01*
X0099496Y0173401D01*
X0099409Y0173550D01*
X0099327Y0173700D01*
X0099247Y0173853D01*
X0099172Y0174007D01*
X0099101Y0174163D01*
X0099033Y0174321D01*
X0098969Y0174481D01*
X0098909Y0174642D01*
X0098853Y0174804D01*
X0098801Y0174968D01*
X0098754Y0175133D01*
X0098710Y0175299D01*
X0098670Y0175466D01*
X0098635Y0175634D01*
X0098603Y0175803D01*
X0098576Y0175973D01*
X0098553Y0176143D01*
X0098534Y0176314D01*
X0098519Y0176485D01*
X0098508Y0176657D01*
X0098502Y0176828D01*
X0098500Y0177000D01*
X0099500Y0134500D02*
X0101500Y0134500D01*
X0103500Y0134500D02*
X0105500Y0134500D01*
X0107500Y0134500D02*
X0109500Y0134500D01*
X0116500Y0134500D02*
X0118500Y0134500D01*
X0123500Y0134500D02*
X0125500Y0134500D01*
X0116500Y0117500D02*
X0116500Y0115500D01*
X0108744Y0115673D02*
X0108744Y0114098D01*
X0108744Y0115673D02*
X0107169Y0115673D01*
X0108744Y0089689D02*
X0108744Y0088114D01*
X0107169Y0088114D01*
X0110627Y0071604D02*
X0112729Y0071604D01*
X0113430Y0070903D01*
X0113430Y0070202D01*
X0112729Y0069502D01*
X0110627Y0069502D01*
X0110627Y0067400D02*
X0110627Y0071604D01*
X0112729Y0069502D02*
X0113430Y0068801D01*
X0113430Y0068101D01*
X0112729Y0067400D01*
X0110627Y0067400D01*
X0115231Y0067400D02*
X0115231Y0070202D01*
X0115231Y0068801D02*
X0116633Y0070202D01*
X0117333Y0070202D01*
X0119068Y0069502D02*
X0119068Y0068101D01*
X0119769Y0067400D01*
X0121170Y0067400D01*
X0121870Y0068801D02*
X0119068Y0068801D01*
X0119068Y0069502D02*
X0119769Y0070202D01*
X0121170Y0070202D01*
X0121870Y0069502D01*
X0121870Y0068801D01*
X0123672Y0068101D02*
X0124373Y0068801D01*
X0126474Y0068801D01*
X0126474Y0069502D02*
X0126474Y0067400D01*
X0124373Y0067400D01*
X0123672Y0068101D01*
X0124373Y0070202D02*
X0125774Y0070202D01*
X0126474Y0069502D01*
X0128276Y0068801D02*
X0130378Y0070202D01*
X0132112Y0069502D02*
X0132112Y0068101D01*
X0132813Y0067400D01*
X0134214Y0067400D01*
X0134915Y0068101D01*
X0134915Y0069502D01*
X0134214Y0070202D01*
X0132813Y0070202D01*
X0132112Y0069502D01*
X0130378Y0067400D02*
X0128276Y0068801D01*
X0128276Y0067400D02*
X0128276Y0071604D01*
X0136716Y0070202D02*
X0136716Y0068101D01*
X0137417Y0067400D01*
X0139519Y0067400D01*
X0139519Y0070202D01*
X0141320Y0070202D02*
X0142721Y0070202D01*
X0142021Y0070903D02*
X0142021Y0068101D01*
X0142721Y0067400D01*
X0160500Y0068000D02*
X0160500Y0073000D01*
X0163000Y0075500D01*
X0160500Y0078000D01*
X0160500Y0083000D01*
X0163000Y0085500D01*
X0160500Y0088000D01*
X0160500Y0093000D01*
X0163000Y0095500D01*
X0160500Y0098000D01*
X0160500Y0103000D01*
X0163000Y0105500D01*
X0160500Y0108000D01*
X0160500Y0113000D01*
X0163000Y0115500D01*
X0160500Y0118000D01*
X0160500Y0123000D01*
X0163000Y0125500D01*
X0160500Y0128000D01*
X0160500Y0133000D01*
X0163000Y0135500D01*
X0160500Y0138000D01*
X0160500Y0143000D01*
X0163000Y0145500D01*
X0160500Y0148000D01*
X0160500Y0153000D01*
X0163000Y0155500D01*
X0160500Y0158000D01*
X0160500Y0163000D01*
X0163000Y0165500D01*
X0160500Y0168000D01*
X0160500Y0173000D01*
X0163000Y0175500D01*
X0168000Y0175500D01*
X0170500Y0173000D01*
X0170500Y0168000D01*
X0168000Y0165500D01*
X0170500Y0163000D01*
X0170500Y0158000D01*
X0168000Y0155500D01*
X0170500Y0153000D01*
X0170500Y0148000D01*
X0168000Y0145500D01*
X0170500Y0143000D01*
X0170500Y0138000D01*
X0168000Y0135500D01*
X0170500Y0133000D01*
X0170500Y0128000D01*
X0168000Y0125500D01*
X0170500Y0123000D01*
X0170500Y0118000D01*
X0168000Y0115500D01*
X0170500Y0113000D01*
X0170500Y0108000D01*
X0168000Y0105500D01*
X0170500Y0103000D01*
X0170500Y0098000D01*
X0168000Y0095500D01*
X0170500Y0093000D01*
X0170500Y0088000D01*
X0168000Y0085500D01*
X0170500Y0083000D01*
X0170500Y0078000D01*
X0168000Y0075500D01*
X0170500Y0073000D01*
X0170500Y0068000D01*
X0168000Y0065500D01*
X0170500Y0063000D01*
X0170500Y0058000D01*
X0168000Y0055500D01*
X0163000Y0055500D01*
X0160500Y0058000D01*
X0160500Y0063000D01*
X0163000Y0065500D01*
X0160500Y0068000D01*
X0104222Y0067400D02*
X0101420Y0067400D01*
X0102821Y0067400D02*
X0102821Y0071604D01*
X0101420Y0070202D01*
X0099618Y0069502D02*
X0099618Y0068101D01*
X0098917Y0067400D01*
X0097516Y0067400D01*
X0096816Y0068101D01*
X0096816Y0069502D02*
X0098217Y0070202D01*
X0098917Y0070202D01*
X0099618Y0069502D01*
X0099618Y0071604D02*
X0096816Y0071604D01*
X0096816Y0069502D01*
X0095014Y0068101D02*
X0095014Y0070903D01*
X0094314Y0071604D01*
X0092212Y0071604D01*
X0092212Y0067400D01*
X0094314Y0067400D01*
X0095014Y0068101D01*
X0090410Y0067400D02*
X0090410Y0071604D01*
X0089009Y0070202D01*
X0087608Y0071604D01*
X0087608Y0067400D01*
X0085806Y0067400D02*
X0085806Y0070202D01*
X0084405Y0071604D01*
X0083004Y0070202D01*
X0083004Y0067400D01*
X0081202Y0068101D02*
X0080502Y0067400D01*
X0079101Y0067400D01*
X0078400Y0068101D01*
X0079101Y0069502D02*
X0080502Y0069502D01*
X0081202Y0068801D01*
X0081202Y0068101D01*
X0083004Y0069502D02*
X0085806Y0069502D01*
X0081202Y0070903D02*
X0080502Y0071604D01*
X0079101Y0071604D01*
X0078400Y0070903D01*
X0078400Y0070202D01*
X0079101Y0069502D01*
X0083500Y0077500D02*
X0083500Y0079500D01*
X0082760Y0088114D02*
X0081185Y0088114D01*
X0081185Y0089689D01*
X0081185Y0114098D02*
X0082760Y0115673D01*
D12*
X0090138Y0133319D02*
X0090138Y0135681D01*
X0094862Y0135681D02*
X0094862Y0133319D01*
D13*
X0079610Y0117248D03*
D14*
X0072453Y0114201D02*
X0072453Y0126799D01*
X0066547Y0126799D01*
X0066547Y0114201D01*
X0072453Y0114201D01*
D15*
X0082800Y0154500D03*
M02*
