G75*
%MOIN*%
%OFA0B0*%
%FSLAX25Y25*%
%IPPOS*%
%LPD*%
%AMOC8*
5,1,8,0,0,1.08239X$1,22.5*
%
%ADD10C,0.00800*%
D10*
X0087355Y0092400D02*
X0086654Y0093101D01*
X0086654Y0093801D01*
X0087355Y0094502D01*
X0088756Y0094502D01*
X0089457Y0095202D01*
X0089457Y0095903D01*
X0088756Y0096604D01*
X0087355Y0096604D01*
X0086654Y0095903D01*
X0086654Y0095202D01*
X0087355Y0094502D01*
X0088756Y0094502D02*
X0089457Y0093801D01*
X0089457Y0093101D01*
X0088756Y0092400D01*
X0087355Y0092400D01*
X0091258Y0092400D02*
X0094061Y0092400D01*
X0092660Y0092400D02*
X0092660Y0096604D01*
X0094061Y0095202D01*
X0095862Y0095903D02*
X0095862Y0093101D01*
X0096563Y0092400D01*
X0097964Y0092400D01*
X0098665Y0093101D01*
X0095862Y0095903D01*
X0096563Y0096604D01*
X0097964Y0096604D01*
X0098665Y0095903D01*
X0098665Y0093101D01*
X0100466Y0092400D02*
X0103269Y0092400D01*
X0100466Y0095202D01*
X0100466Y0095903D01*
X0101167Y0096604D01*
X0102568Y0096604D01*
X0103269Y0095903D01*
X0104236Y0099900D02*
X0105637Y0099900D01*
X0106338Y0100601D01*
X0106338Y0102002D01*
X0105637Y0102702D01*
X0104236Y0102702D01*
X0103536Y0102002D01*
X0103536Y0101301D01*
X0106338Y0101301D01*
X0108139Y0099900D02*
X0110241Y0099900D01*
X0110942Y0100601D01*
X0110942Y0102002D01*
X0110241Y0102702D01*
X0108139Y0102702D01*
X0108139Y0104104D02*
X0108139Y0099900D01*
X0112610Y0099900D02*
X0114011Y0099900D01*
X0113311Y0099900D02*
X0113311Y0102702D01*
X0114011Y0102702D01*
X0113311Y0104104D02*
X0113311Y0104804D01*
X0115813Y0103403D02*
X0116513Y0104104D01*
X0117914Y0104104D01*
X0118615Y0103403D01*
X0118615Y0102702D01*
X0117914Y0102002D01*
X0116513Y0102002D01*
X0115813Y0101301D01*
X0115813Y0100601D01*
X0116513Y0099900D01*
X0117914Y0099900D01*
X0118615Y0100601D01*
X0118882Y0095202D02*
X0118882Y0092400D01*
X0120984Y0092400D01*
X0121684Y0093101D01*
X0121684Y0095202D01*
X0123486Y0096604D02*
X0124887Y0096604D01*
X0124186Y0096604D02*
X0124186Y0093101D01*
X0124887Y0092400D01*
X0125588Y0092400D01*
X0126288Y0093101D01*
X0127189Y0089104D02*
X0127189Y0084900D01*
X0128590Y0084900D02*
X0125788Y0084900D01*
X0128590Y0087702D02*
X0127189Y0089104D01*
X0130192Y0085601D02*
X0130192Y0084900D01*
X0130892Y0084900D01*
X0130892Y0085601D01*
X0130192Y0085601D01*
X0132694Y0085601D02*
X0132694Y0088403D01*
X0135496Y0085601D01*
X0134795Y0084900D01*
X0133394Y0084900D01*
X0132694Y0085601D01*
X0135496Y0085601D02*
X0135496Y0088403D01*
X0134795Y0089104D01*
X0133394Y0089104D01*
X0132694Y0088403D01*
X0132694Y0092400D02*
X0135496Y0092400D01*
X0132694Y0095202D01*
X0132694Y0095903D01*
X0133394Y0096604D01*
X0134795Y0096604D01*
X0135496Y0095903D01*
X0137298Y0095903D02*
X0137998Y0096604D01*
X0139399Y0096604D01*
X0140100Y0095903D01*
X0137298Y0095903D02*
X0137298Y0095202D01*
X0140100Y0092400D01*
X0137298Y0092400D01*
X0137298Y0089104D02*
X0137298Y0086301D01*
X0138699Y0084900D01*
X0140100Y0086301D01*
X0140100Y0089104D01*
X0140100Y0099900D02*
X0138699Y0101301D01*
X0137298Y0099900D01*
X0137298Y0104104D01*
X0135496Y0102002D02*
X0134795Y0102702D01*
X0133394Y0102702D01*
X0132694Y0102002D01*
X0132694Y0101301D01*
X0135496Y0101301D01*
X0135496Y0100601D02*
X0135496Y0102002D01*
X0135496Y0100601D02*
X0134795Y0099900D01*
X0133394Y0099900D01*
X0130892Y0099900D02*
X0128790Y0099900D01*
X0128090Y0100601D01*
X0128790Y0101301D01*
X0130192Y0101301D01*
X0130892Y0102002D01*
X0130192Y0102702D01*
X0128090Y0102702D01*
X0126288Y0102702D02*
X0124887Y0102702D01*
X0125588Y0103403D02*
X0125588Y0100601D01*
X0124887Y0099900D01*
X0117080Y0095202D02*
X0117080Y0092400D01*
X0114278Y0092400D02*
X0114278Y0094502D01*
X0114979Y0095202D01*
X0117080Y0095202D01*
X0112476Y0094502D02*
X0111776Y0095202D01*
X0110375Y0095202D01*
X0109674Y0094502D01*
X0109674Y0093801D01*
X0112476Y0093801D01*
X0112476Y0093101D02*
X0112476Y0094502D01*
X0112476Y0093101D02*
X0111776Y0092400D01*
X0110375Y0092400D01*
X0097130Y0099900D02*
X0097130Y0104104D01*
X0094328Y0104104D01*
X0092526Y0104104D02*
X0091826Y0104104D01*
X0091826Y0099900D01*
X0092526Y0099900D02*
X0091125Y0099900D01*
X0089457Y0100601D02*
X0089457Y0102002D01*
X0088756Y0102702D01*
X0087355Y0102702D01*
X0086654Y0102002D01*
X0086654Y0101301D01*
X0089457Y0101301D01*
X0089457Y0100601D02*
X0088756Y0099900D01*
X0087355Y0099900D01*
X0084853Y0100601D02*
X0084152Y0099900D01*
X0082051Y0099900D01*
X0079548Y0100601D02*
X0078848Y0099900D01*
X0079548Y0100601D02*
X0079548Y0103403D01*
X0078848Y0102702D02*
X0080249Y0102702D01*
X0082051Y0102702D02*
X0084152Y0102702D01*
X0084853Y0102002D01*
X0084853Y0100601D01*
X0077180Y0101301D02*
X0075779Y0102702D01*
X0075078Y0102702D01*
X0073343Y0102002D02*
X0073343Y0100601D01*
X0072643Y0099900D01*
X0071241Y0099900D01*
X0070541Y0100601D01*
X0070541Y0102002D01*
X0071241Y0102702D01*
X0072643Y0102702D01*
X0073343Y0102002D01*
X0077180Y0102702D02*
X0077180Y0099900D01*
X0068739Y0099900D02*
X0068739Y0102702D01*
X0066637Y0102702D01*
X0065937Y0102002D01*
X0065937Y0099900D01*
X0064135Y0099900D02*
X0062734Y0099900D01*
X0063435Y0099900D02*
X0063435Y0102702D01*
X0064135Y0102702D01*
X0063435Y0104104D02*
X0063435Y0104804D01*
X0061066Y0102002D02*
X0061066Y0100601D01*
X0060365Y0099900D01*
X0058264Y0099900D01*
X0056462Y0099900D02*
X0054360Y0099900D01*
X0053660Y0100601D01*
X0054360Y0101301D01*
X0055761Y0101301D01*
X0056462Y0102002D01*
X0055761Y0102702D01*
X0053660Y0102702D01*
X0058264Y0102702D02*
X0060365Y0102702D01*
X0061066Y0102002D01*
X0094328Y0099900D02*
X0097130Y0099900D01*
X0097130Y0102002D02*
X0095729Y0102002D01*
X0140100Y0104104D02*
X0140100Y0099900D01*
M02*
