G75*
%MOIN*%
%OFA0B0*%
%FSLAX25Y25*%
%IPPOS*%
%LPD*%
%AMOC8*
5,1,8,0,0,1.08239X$1,22.5*
%
%ADD10R,0.03750X0.03750*%
%ADD11R,0.05324X0.03750*%
%ADD12R,0.20876X0.20876*%
%ADD13R,0.03356X0.01584*%
%ADD14R,0.01584X0.03356*%
%ADD15R,0.08080X0.04931*%
%ADD16R,0.02765X0.05324*%
%ADD17R,0.01969X0.05709*%
%ADD18R,0.04537X0.08474*%
%ADD19C,0.05324*%
%ADD20R,0.10443X0.10443*%
%ADD21C,0.03356*%
%ADD22C,0.08000*%
%ADD23R,0.06600X0.06600*%
D10*
X0080500Y0078500D03*
X0086500Y0078500D03*
X0063500Y0104000D03*
X0057500Y0104000D03*
X0056500Y0115500D03*
X0062500Y0115500D03*
X0062500Y0125500D03*
X0056500Y0125500D03*
X0067500Y0147500D03*
X0067500Y0153500D03*
X0079500Y0137500D03*
X0083500Y0137500D03*
X0083500Y0131500D03*
X0079500Y0131500D03*
X0086500Y0147500D03*
X0086500Y0153500D03*
X0100500Y0137500D03*
X0104500Y0137500D03*
X0108500Y0137500D03*
X0108500Y0131500D03*
X0104500Y0131500D03*
X0100500Y0131500D03*
X0113500Y0116500D03*
X0119500Y0116500D03*
X0117500Y0131500D03*
X0117500Y0137500D03*
X0124500Y0137500D03*
X0124500Y0131500D03*
D11*
X0092500Y0130957D03*
X0092500Y0138043D03*
D12*
X0094964Y0101893D03*
D13*
X0081579Y0100909D03*
X0081579Y0098941D03*
X0081579Y0096972D03*
X0081579Y0095004D03*
X0081579Y0093035D03*
X0081579Y0091067D03*
X0081579Y0102878D03*
X0081579Y0104846D03*
X0081579Y0106815D03*
X0081579Y0108783D03*
X0081579Y0110752D03*
X0081579Y0112720D03*
X0108350Y0112720D03*
X0108350Y0110752D03*
X0108350Y0108783D03*
X0108350Y0106815D03*
X0108350Y0104846D03*
X0108350Y0102878D03*
X0108350Y0100909D03*
X0108350Y0098941D03*
X0108350Y0096972D03*
X0108350Y0095004D03*
X0108350Y0093035D03*
X0108350Y0091067D03*
D14*
X0105791Y0088508D03*
X0103823Y0088508D03*
X0101854Y0088508D03*
X0099886Y0088508D03*
X0097917Y0088508D03*
X0095949Y0088508D03*
X0093980Y0088508D03*
X0092012Y0088508D03*
X0090043Y0088508D03*
X0088075Y0088508D03*
X0086106Y0088508D03*
X0084138Y0088508D03*
X0084138Y0115279D03*
X0086106Y0115279D03*
X0088075Y0115279D03*
X0090043Y0115279D03*
X0092012Y0115279D03*
X0093980Y0115279D03*
X0095949Y0115279D03*
X0097917Y0115279D03*
X0099886Y0115279D03*
X0101854Y0115279D03*
X0103823Y0115279D03*
X0105791Y0115279D03*
D15*
X0069500Y0115579D03*
X0069500Y0125421D03*
D16*
X0072760Y0145381D03*
X0080240Y0145381D03*
X0080240Y0155619D03*
X0076500Y0155619D03*
X0072760Y0155619D03*
D17*
X0067618Y0172449D03*
X0065059Y0172449D03*
X0062500Y0172449D03*
X0059941Y0172449D03*
X0057382Y0172449D03*
D18*
X0059547Y0183374D03*
X0065453Y0183374D03*
D19*
X0075492Y0171957D02*
X0080217Y0171957D01*
X0049508Y0171957D02*
X0044783Y0171957D01*
D20*
X0051400Y0182980D03*
X0073600Y0182980D03*
D21*
X0070177Y0175500D03*
X0054823Y0175500D03*
D22*
X0039500Y0046500D03*
X0049500Y0046500D03*
X0059500Y0046500D03*
X0069500Y0046500D03*
X0079500Y0046500D03*
X0089500Y0046500D03*
X0099500Y0046500D03*
X0109500Y0046500D03*
X0119500Y0046500D03*
X0129500Y0046500D03*
X0139500Y0046500D03*
X0149500Y0046500D03*
X0165500Y0060500D03*
X0165500Y0070500D03*
X0165500Y0080500D03*
X0165500Y0090500D03*
X0165500Y0100500D03*
X0165500Y0110500D03*
X0165500Y0120500D03*
X0165500Y0130500D03*
X0165500Y0140500D03*
X0165500Y0150500D03*
X0165500Y0160500D03*
X0165500Y0170500D03*
X0118300Y0168100D03*
X0118300Y0185900D03*
X0092700Y0185900D03*
X0092700Y0168100D03*
X0053500Y0155500D03*
X0043500Y0155500D03*
X0021500Y0150500D03*
X0021500Y0160500D03*
X0021500Y0170500D03*
X0021500Y0140500D03*
X0021500Y0130500D03*
X0021500Y0120500D03*
X0021500Y0110500D03*
X0021500Y0100500D03*
X0021500Y0090500D03*
X0021500Y0080500D03*
X0021500Y0070500D03*
X0021500Y0060500D03*
D23*
X0132500Y0175500D03*
X0132500Y0185500D03*
X0142500Y0185500D03*
X0142500Y0175500D03*
X0152500Y0175500D03*
X0152500Y0185500D03*
M02*
